<svg xmlns="http://www.w3.org/2000/svg" viewBox="0 0 1073 603.3">
    <defs>
        <style>
            .a{fill:#62d2c5;}.a,.b,.c,.d,.e,.f,.g,.h,.i,.j{stroke:#000;}.b{fill:#ffff80;}.c{fill:#aa6ca6;}.d{fill:#fc8b8b;}.e{fill:#37ce04;}.f{fill:#c7cb8f;}.g{fill:#01bee7;}.h{fill:#fece2c;}.i{fill:none;}.j{fill-opacity:0;stroke-linecap:round;}
        </style>
    </defs>
    <title>all2</title>
    <polygon class="a"
             points="378.6 261.2 376.8 261.8 377.3 265.7 377.6 267.9 379.2 268.3 379.8 271.5 383 271.8 384.1 269.2 382.6 266.7 382.7 263.8 381 260 381 260 378.6 261.2"/>
    <polygon class="a"
             points="327.5 246.8 327.5 246.8 324.2 247.7 322.2 250.3 320.7 252.3 321.8 255.2 324.2 256.1 326.4 257 328.6 255.5 331.1 255.9 332.5 252.7 330.4 250 330.2 247.7 327.5 246.8"/>
    <path class="a"
          d="M402.7,287.4l-1.4,2-1.6,1.6-1,1,1.6,1.5.3,1.3,1.3.4v5.7h-1.6l-1.9-1.1h-1.9l-3.3,2.8-2.9.2L389,306l-4.4-.7-1.2,1.9-1.9,1.9-1.9,1.1-3.7,1.3-3.2.8-3.7-1.9-2,.4-2.2-1.9-4.4-1.7-4.5-2.9-3.3-1.3-5.4-2.1-2.7-2.7-3.2-.3-5.5-3.5-2.6-2.6-4-1.8-4-3.4-3.7.4-2.7,1.8H301.4l-1.4-1.4-3.2-1.5-.3,1-2.8,1-1.6-.6-2-2.3-1.5-1.5-.7-2.8-2.6-2.6-1.5-1.9-.9-3.5-1.2-2.7-1.3-1.7,4-.8,3.3-4.8v-4.2l1.3-2.8,4.3-2.2v-2.7l4.2-2.5v-4.2l-.7-4h2.8l.9,2.1,3.8,3.8,2.8,4.3v5.8l-1,3-1.5,1.5-2.5-2.5-3.5-.8-5.3,1.8v4.3l1.3,4v3.3l3.8,1,3.7,1.7,4.2-2v-3l4.3-1,4.2,2-.7-2.7,6.5,1.2,3.5-.7,6.3.8h3.7l1.8,3.3h1.7v-3l5.3-1.7h2.9l1.2,4.3h-3.2l-1,3-2.5.8,3.8,3.5h2.7l5-2.2,4.8.9,5.2,5.2,1.8-1.7h3.5l4.4-1.4,1.8,1.8-.5,2.3-2.7,1.8v2.8l3.2,2.7.3-3.1,1.4-1.4,3.3.8v-2.3l3.2-.5.7-4-.5-4.8,3-1.5,2.6-.7,3.1,3.1,1.3-1.3,3.4,4.3,3.9,3.9,3.2,3.2.8,1.6Z"
          transform="translate(-0.1 -0.1)"/>
    <polygon class="a"
             points="275 215.6 273.7 210.9 270.9 208.1 270.9 204.2 268.5 203.1 268.5 199.6 266.3 197.4 263.5 195.9 263.5 192.7 262.7 189.6 264.4 187.8 266.3 189.7 268.2 190.9 267.3 187.9 267.3 185.2 263.3 185.1 260.5 185.4 261.2 181.9 258.3 183.9 256 181.6 253.2 181.6 248.3 179.7 241.3 183.2 236 185.9 236 194.9 233.3 199.6 224.8 199.6 219.8 204.6 219.3 207.7 227.3 214.9 227 217.9 226.1 220.4 227.9 222.2 230.7 221.5 232.4 222.6 234.5 222.4 234.5 222.4 233.8 218.7 235.4 217.1 236.5 214.2 238.8 216.6 236.9 218.5 236.2 222.2 238.5 223.2 239.7 229.4 241.8 233.1 243 236.4 244.5 239.9 247.7 243.1 247.7 247.6 250.8 250.6 255.7 253.4 260.2 255.1 265.3 254.1 270 254.1 274.4 249.6 277.3 244.6 278 238.6 278.2 234.9 275.3 232 275.2 226.9 274.2 224.6 275 220.4 275 215.6"/>
    <polygon class="a"
             points="131.2 281 130.1 278.6 129.9 276.1 127.8 274 128.8 271.7 126.8 269.4 123 269.2 120.2 273.1 116.7 274.4 116.5 276.9 114.7 279.1 110.5 279.2 108.8 281.2 108.8 284.7 104.8 287.2 102.2 287.9 103 290.9 101.2 294.2 98 297.4 97.5 299.7 99 303.1 101.3 305.4 100.5 308.1 99.5 310.6 102.7 311.4 105.5 314.1 105.5 319.7 108.3 319.5 108.3 319.5 110.6 322.2 111.6 319.4 113.9 319.4 114.9 317.6 115.8 315.6 116.2 312.1 117.7 310.6 117.9 308.6 120.5 306.4 119.1 305 120.4 303.6 121.9 302.9 121.9 300.6 123.3 299.8 125 298.1 127.3 297.1 128 294.7 126.3 293.5 125.7 292.1 126.9 290.9 126.9 288.7 128.2 287.5 130.9 287.2 130.3 284 131.2 281"/>
    <polygon class="b"
             points="119.3 352.7 121.2 351.3 123.5 351.3 126.6 350.6 127.8 348.8 130 346.6 133 345.3 133.8 342.6 133 340.8 131 339.2 129.8 336.7 128.4 335.4 128.4 333.6 125.6 332.9 123 333.6 119.7 332.8 118.1 331.2 115.6 329.7 113.7 327.9 113.1 324.5 110.8 323.2 110.6 322.2 108.3 319.5 105.5 319.7 102.3 322.4 102.3 322.4 101.2 324.9 97.8 325.9 96.5 329.6 94.7 333.9 93.7 337.9 93.8 340.7 92.2 341.9 94.7 344.4 93.7 348.1 92.8 351.4 95.3 352.7 95.3 355.6 96.9 354.1 98.6 351.4 100.8 351.6 103.3 350.3 105.5 349.8 107.9 347.4 110.2 347.4 111.8 349.1 112.3 351.1 114.8 351.3 115.6 350.5 116.9 350.9 119.3 352.7"/>
    <polygon class="b"
             points="98.8 374.2 99.3 372.7 98.8 371.2 100.3 370.6 102.2 370.6 103.6 372 104.5 371.1 105 369 106 368 105.7 365.6 104.1 363.9 104.1 362 105.3 360.7 105.3 358.2 106 355.7 104.7 354.4 104.8 352.8 103.3 350.3 100.8 351.6 98.6 351.4 96.9 354.1 95.3 355.6 95.3 352.7 92.8 351.4 89.7 352.4 89.7 352.4 86.3 351.2 85.3 348.7 83.5 346.7 81 346.9 80.2 349.9 78 352.4 74.8 355.6 73.3 358.2 74.8 360.7 76.6 362.5 78.8 360.6 80.3 362.7 82.2 364.7 84.7 365.1 86.5 366.9 87.8 370.2 87.5 372.9 86.3 377.4 88.2 377.5 89.3 375.7 91.8 375 93.2 376.1 95.3 376.1 97.1 374.2 98.8 374.2"/>
    <polygon class="b"
             points="109.4 399.9 111.6 400.2 113.9 401.7 111.9 403.8 109.4 402.9 107.8 404.5 107.8 407 106 407.8 105.2 405.2 102.7 402.7 98.9 400.3 96.6 400.8 92 399.9 92 398.1 89.6 395.5 88.5 396.7 85.6 396.7 82.2 395.9 83.8 392.2 83.8 392.2 83.8 388.7 82 385.4 80.2 382.6 81.8 381.2 82.8 378.7 84.8 378.7 86.3 377.4 88.2 377.5 89.3 375.7 91.8 375 93.2 376.1 95.3 376.1 96.2 377.5 97.9 378.1 99.2 379.1 99.2 381.9 101.1 382.4 101.6 384 103.3 384.8 103.8 388.5 105.7 391.6 106.3 395.4 108.1 395.7 109.4 397.1 109.4 399.9"/>
    <polygon class="b"
             points="106 415.7 104.3 415.7 104.3 418.9 104.9 421.4 102.3 422.6 102.3 425.5 100.3 425.7 100.9 427.8 98 429.3 97.5 428.7 97.5 428.7 96.5 424.9 94 423.4 91.3 420.4 92.3 416.9 91.3 411.7 88.2 409.4 84.5 406.6 83.3 402.7 80.8 400.7 80 398.4 82.2 395.9 85.6 396.7 88.5 396.7 89.6 395.5 92 398.1 92 399.9 96.6 400.8 98.9 400.3 102.7 402.7 105.2 405.2 106 407.8 106.7 410 105.2 411.2 107.3 413.2 106 415.7"/>
    <polygon class="b"
             points="127.4 414.3 129.1 416 128.3 418.6 130.3 420.6 133.4 421.8 134.5 424 136.4 425.9 137.5 429.2 138.8 432.6 137.6 433.8 134.2 433.8 131.7 432.4 131.1 430.5 128.7 430.1 126.3 432.2 121.6 432.2 120.4 436.2 116.5 440.1 112.2 440.1 110.7 441.6 108.3 441.6 107.2 440 104.3 440 104.3 437.8 103 436.6 100.2 435.2 100.2 431.7 98 429.3 98 429.3 100.9 427.8 100.3 425.7 102.3 425.5 102.3 422.6 104.9 421.4 104.3 418.9 104.3 415.7 106 415.7 107.3 413.2 106.1 412 105.2 411.2 106.7 410 106 407.8 107.8 407 107.8 404.5 109.4 402.9 111.9 403.8 113.9 401.7 116.8 402.2 118.1 404.8 121.1 405.8 120.5 408.8 122.5 410.8 125.1 411 127.4 414.3"/>
    <polygon class="c"
             points="64.9 519.8 62.9 521.8 61 522.6 61 522.6 58.5 521.4 54.8 518.9 53.7 514.9 51.2 511.1 50.3 507.7 52.4 505.7 54.7 505.3 56.4 503.7 58.1 503.7 59 505.7 60.4 507.8 63.7 507.8 66.2 504.7 68.2 505.3 68.2 508 70 509.2 70.4 511.3 71.4 512.6 68.4 512.6 67.6 514.1 68.9 515.5 69.8 517 68.9 519 66.6 520 64.9 519.8"/>
    <polygon class="c"
             points="67 534.2 67.7 539.6 70 541.9 73.7 542.4 75.8 544.5 76.3 546.2 78 543.6 80.5 543.6 80.7 541.8 80 539.2 80.7 535.3 82.9 534.4 86.3 534.5 85.7 531.7 82.5 528.8 81.2 529.9 81.2 531.9 80 533.1 77 533.3 75.9 534.3 74.3 532.9 72.2 532.9 70.7 533.8 69.2 533.5 67 534.2"/>
    <polygon class="c"
             points="80.7 535.3 82.9 534.4 84.1 536.6 86.7 538.6 86.1 541.2 86.1 541.2 84.5 544.6 82.5 547.8 80 549.6 79.2 546.6 76.3 546.2 78 543.6 80.5 543.6 80.7 541.8 80 539.2 80.7 535.3"/>
    <polygon class="c"
             points="80 557.6 81.5 555.1 84.4 554.7 86.2 553.3 89 553.5 90.7 552.2 93.5 553.8 94.5 549.9 97.4 546.4 100.4 544.7 102.2 544.1 101.9 540.3 98.5 540 96.6 537.5 94.2 534.9 95.2 532.2 93.4 531.4 93.4 530 95.5 530 96.7 528.9 95.9 527.5 97.2 526.2 99.3 527 101.8 526.2 104.5 524.5 106.8 526.1 107.9 527.8 109.7 528.5 110.5 530.6 110.3 533.5 110.3 533.5 108.6 535.2 108.6 538 110.3 539.7 111.3 542.9 110.5 546.1 109.8 549 107.8 550.9 107.8 552.1 106.2 553.6 102.5 559.6 102.5 564.2 103.5 569.9 102.8 574.2 103.2 579.6 99.2 581.4 96.5 580.2 92.7 581.6 89 580.7 88.5 577.6 86.7 572.1 86.3 568.1 83.7 566.2 83.7 564.1 82.3 560.6 80 557.6"/>
    <polygon class="d"
             points="134.7 499 131 498.8 129.4 496.7 129.1 493.5 129.6 491 130.1 488.2 128.1 486.9 127.2 483.6 124.1 482.9 122.4 481.2 122.4 479.1 120.8 478.5 119.6 481.8 117.9 482.5 116.2 480.8 114.2 481.5 112.4 479.7 109.4 482.5 109.4 486.1 111.5 486.2 113.9 484.9 113.9 487.3 112.3 490.7 108.9 493.2 105.1 493.2 101.6 496.8 99.6 496.3 98.7 497.1 96.9 496.5 95.7 495.2 94.5 490.2 92.4 489.6 90.9 488.1 90.9 485.9 90 483.5 88.1 483.5 88.1 485.1 86.9 486.3 83.8 486.3 82.2 485.2 80.1 486.9 81.9 487.8 82.7 490 84.4 490 85.7 489.5 86.5 491.7 87.8 493.1 90.8 492.5 92.7 493.3 93 495.7 94.6 497.6 95.1 499.7 96.7 501.2 97.8 504.2 96.6 506.5 97.8 508.8 99.6 510.5 100.8 512.2 100.8 514.2 102.6 516 103.1 518.6 104.5 520.7 104.5 524.5 106.8 526.1 107.9 527.8 109.7 528.5 110.5 530.6 110.3 533.5 112.3 534.1 112.3 534.1 115.8 533.1 119 533.1 121.8 529.7 124.2 528.7 124.2 526.4 122.4 525.1 120.1 525.1 119.6 523.8 125.1 520 125.1 518.4 124 517.3 124 515.3 122.8 513.7 124.1 512.4 126 513.2 126.3 514.5 127.5 514.5 127.8 512.3 131.3 512.6 132.4 510 130.7 508.3 131.9 504.1 133.8 503 134.2 501.1 134.7 499"/>
    <polygon class="e"
             points="235.7 506.1 232.2 506.6 229.3 505.7 227.3 501.9 224.5 499.4 222.5 502.7 220.3 502.7 220.3 500.1 222.3 498.1 221 495.2 219.3 490.9 218.7 486.4 216.2 483.4 212.2 481.9 211 479.1 208.8 476.9 204.8 477.6 202.5 477.6 202.5 474.4 201.3 471.1 201.5 469.2 207.4 469.2 209.1 465.7 212.3 463.4 214.1 463.9 215.2 461.7 219.7 460.9 222 455.6 225.8 453.4 228.7 450.6 229.8 445.9 232.5 445.9 235.3 448.7 233.3 450.7 235.1 452.3 236.1 454.1 236 458.4 237.2 459.7 236.3 464.3 238.2 465.4 240.4 467.7 241.8 471.4 241.8 475 242.9 477.3 242 479.6 242 482.8 241.3 484.4 243.2 485.5 245 483.7 247.8 483.7 248.8 485.6 247.8 488.1 245.1 489.2 245.7 490.5 247.5 490.9 246.9 494.2 245.9 495.2 246.4 497.8 248 497.8 248.4 499.3 250.4 501.2 252.4 500.3 253.8 498.8 255.6 499.7 256.2 501.4 258 502.6 260.1 503.2 262.2 501.6 263.7 498.3 266.4 498.3 269.6 498.3 271.5 497.6 274.2 498.8 275.9 498.8 277.1 500.9 276.3 503 273.1 504.5 273.4 506.6 275.2 506.6 275.7 509.2 275.7 509.2 276.8 511.6 279.1 514 280.7 515.6 281.3 518.4 283.7 520.7 281.3 523.9 279.2 526.1 275.5 526.1 271.8 526.3 269.8 524.4 268.5 521.7 266.8 521.7 265 523.5 262.1 523.5 258.8 520.2 258.2 518.4 255.8 515.9 255.8 511.6 253.7 509.6 249.8 509.6 246.7 510.7 245.5 508.2 242.3 505.7 239.5 504.2 235.7 506.1"/>
    <polygon class="f"
             points="276.3 503 277.1 500.9 275.9 498.8 274.2 498.8 271.5 497.6 269.6 498.3 263.7 498.3 264.7 496.6 267.3 495.4 267.7 492.9 270 488.8 271.8 488.8 271.8 485.9 274 482.9 274 481.1 277.4 477.7 280 476.8 280 475.6 282.8 475.3 284 476.9 285.9 476.9 285.9 473.7 284.7 470.1 280.7 468.8 278.9 470 274.8 469.6 272.6 466.2 272.1 461.7 270.5 460.1 269.9 456.9 273.5 454.2 276 455 278.7 456.3 280.6 458.2 280.6 460.5 284.1 461.7 286.3 459.5 290.1 458.6 290.1 456.6 292.1 452.9 292.8 450.3 292.2 447.5 294.5 446.6 297.2 448.5 298.2 450.1 301.2 451.2 301.8 452.4 304 452.7 306.2 454.9 308.4 452.9 310.8 454.2 312.6 456 314.3 457.8 314.4 461.5 314.9 465.7 313.3 468.2 310.4 468.2 308.8 469.8 309.8 473 308.1 474.6 305.9 474.6 305.4 476.9 307.3 478.8 309.4 478.9 309.8 480.4 313.1 480.4 314.5 483.7 312 486.2 311.2 488.6 311.2 488.6 307 487.7 304 488.6 301.3 486.2 297.5 484.2 294 484.2 292.8 487.9 294 490.4 291.7 492.7 293.5 493.9 295.3 495.7 297.6 498 295.5 500.1 293.2 500.1 290.3 497.2 286 497.4 283.2 498.6 284.3 502.7 283.2 505.7 280.3 506.6 277 505.7 275.7 509.2 275.2 506.6 273.4 506.6 273.1 504.5 276.3 503"/>
    <polygon class="g"
             points="375.6 489.5 377.3 487.8 377.3 485.5 378.7 485.3 380.4 483.5 381.1 481.8 381.1 478.8 385.3 474.6 388.5 474.1 389.7 472.9 389.7 470.6 387.2 469.3 386.4 467.3 384.8 465.8 382.6 464.6 382.6 462.8 385.2 461.5 384.1 458.1 384.3 455.5 386.6 453 387.8 451 390.3 449.3 392.9 451.9 391.3 453.5 391.3 455.5 393.6 456.3 396.4 457.1 398.3 458 400.4 459.4 403.8 459.4 404.9 457.8 407.8 459.3 410.3 460 414.3 460 417.6 458.5 420.3 455.8 421.8 453.6 422.3 455.3 421.4 457.4 420.4 459.6 420.4 463 422.4 465 421.8 469.1 423.7 472.9 424.7 475.8 424.7 480 424.7 483.8 422 486.5 422.6 488.3 422.6 490.8 421.3 492 418.9 491.1 416.8 492 413.7 495.6 411.8 500.3 412.6 506.1 412.6 509.5 414.2 511.2 414.2 513.1 412.4 515 410.9 519 410.9 519 408.2 521.7 403.5 523.1 399.5 525.2 397.7 522.6 394.2 524.2 391.3 524.2 392.3 519.7 396.3 517.9 396.3 515.6 393 515.6 390 513.7 388.2 515.6 384.8 514.6 385.9 510.6 383.5 508.2 380.2 510.2 376.5 509.2 375.6 506.3 377.7 504.2 377.7 501.1 378.5 498.7 377.2 494.6 374.7 493.4 374.7 491.4 375.6 489.5"/>
    <polygon class="g"
             points="422 486.5 424.7 483.8 424.7 475.8 428.3 476.6 430.3 478.6 434.4 478.6 438.9 479.3 442.7 481.3 447.2 483.1 450 486 452.2 488.2 455.6 492.8 462.8 492.8 465.7 496.8 469.1 496.8 473.1 495.8 475.4 493.4 477.6 494.4 478.2 498.6 478.2 501.8 479.5 503.1 477.9 504.6 479.7 506.5 481.9 504.3 484.1 501.9 488.3 502.1 488.8 507.6 489.9 510 490.8 515 490.2 522.1 492.3 525.3 486.8 528.4 483.6 528.4 481.3 530.1 479.1 528.9 476.8 531.1 474.8 529.1 471.6 532.3 470.2 536.1 467.9 537.1 465.7 533.9 463.8 533.9 462.3 531.6 462.3 529.3 459.3 526.3 457.7 524.7 454.3 524.9 449.4 526.5 444.6 530.1 439.1 530.1 435.8 531.5 433.3 532.4 431.4 530.5 430.3 532.1 427.7 533.4 427.7 533.4 425.8 531.6 423.9 527.5 421.8 525.4 419 524.2 419 521.2 421.3 521.2 423.3 518.6 422.5 516.2 419.5 516.2 417 518.7 413.5 518.9 410.9 519 412.4 515 414.2 513.1 414.2 511.2 412.6 509.5 412.6 506.1 411.8 500.3 413.7 495.6 416.8 492 418.9 491.1 421.3 492 422.6 490.8 422.6 488.3 422 486.5"/>
    <polygon class="g"
             points="429.7 532.4 431.4 530.5 433.3 532.4 439.1 530.1 444.6 530.1 449.4 526.5 454.3 524.9 457.7 524.7 462.3 529.3 462.3 531.6 463.8 533.9 465.7 533.9 467.9 537.1 470.2 536.1 471.6 532.3 474.8 529.1 476.8 531.1 479.1 528.9 481.3 530.1 483.6 528.4 486.8 528.4 492.3 525.3 494.3 529.1 497.3 529.1 499.4 533.3 501.3 535.1 501.9 538.3 504.6 539.9 507.1 539.9 507.2 542.1 504.7 543.3 506.4 546.4 506.4 549 507.4 551.8 504.8 553 503.3 555.6 505.1 557.5 503.8 559.4 502.1 559.4 500.4 561.5 497.3 559.5 495.3 561.5 495.3 564 493.4 565.9 491.3 568.1 488.4 568.1 484.1 569.8 480.6 570.9 478.9 572.5 481.2 574.8 482.6 576.2 482.6 579.1 479.3 579.4 479.3 579.4 477 577.2 473.9 575.9 471.8 573.8 467.6 573.8 465.5 575.9 461.3 576.6 459.7 574.9 456 575.6 454 573.6 452.2 571.7 452.2 569.2 450.3 567.1 447.7 567.9 445.8 571.7 442.2 572.4 440 568.1 438.8 564.2 438 559.9 435.2 554.9 435.2 550.9 432.5 548.4 432.5 542.9 430.5 536.2 427.7 533.4 429.7 532.4"/>
    <polygon class="g"
             points="497.3 559.5 500.4 561.5 502.1 559.4 503.8 559.4 505.1 557.5 503.3 555.6 504.8 553 507.4 551.8 510.7 554.6 513.9 554.6 516.8 556.1 518.4 556.1 518.6 559.1 516.5 561.2 514.1 563.6 514.8 566.9 513.2 568.5 516.6 572 519.3 572 520.9 568.6 522.7 568.6 523.2 572.5 524.3 576.1 528.1 580 531.2 582.9 530.4 585.3 527.7 585.9 526.4 587.1 528.9 589.6 528.9 592.4 530.2 594.7 530.2 594.7 526.3 595.6 523.5 598.4 518.5 598.2 514.3 600.6 512.2 602.7 507.3 601.9 505.8 599.4 504 596.1 503.1 592.6 500.5 595.2 496.2 596.9 492.2 595.6 487.7 594.4 487.7 590.4 484.2 588.2 482.8 585.2 480 583.4 479.3 579.4 482.6 579.1 482.6 576.2 481.2 574.8 478.9 572.5 480.6 570.9 484.1 569.8 488.4 568.1 491.3 568.1 495.3 564 495.3 561.5 497.3 559.5"/>
    <polygon class="g"
             points="547.3 584.4 543 584.4 537.5 587.9 534.2 591.2 530.8 591.2 530.2 594.7 528.9 592.4 528.9 589.6 526.4 587.1 527.7 585.9 530.4 585.3 531.2 582.9 528.1 580 524.3 576.1 523.2 572.5 522.7 568.6 524.2 567.1 527.1 567.9 530.3 568.1 533.5 565 533.5 561.3 537.1 559.4 539.9 562.3 543.8 563.6 547.6 563.6 550.9 565.4 553.6 565.4 557.1 563.9 561.9 559.6 565.4 558.6 565.4 554.4 567.9 551.9 567.9 549.1 571.8 548.1 572.8 542.1 574.4 540.5 578.8 541.3 582 538.1 585.7 538.3 587.1 536.8 588.9 537.5 589.8 535.4 592.8 535.4 595.3 537.3 599.1 537.8 602.2 540.8 604.3 541.8 607.9 541.8 609.4 540.3 611.2 542 612.6 543.4 610.6 545.3 610.6 548.3 608.8 550.1 609.4 552.9 611.1 554.5 611.3 557.6 611.3 557.6 608.7 560.2 606.6 564.5 604.3 566.7 603.7 571.1 605.8 573.6 605.8 577.3 608.7 580.2 608.7 584.2 604.8 586.8 601 590.6 597.8 590.6 593 590.6 588.5 589.4 583.8 590.2 580.5 589.2 575.7 587.6 573 584.9 569.8 581.7 566 580.6 561.5 582.4 558.7 579.6 555.1 578 552.2 580.9 548.5 580.9 547.3 584.4"/>
    <path class="h"
          d="M897.1,499.3l-1.9,1.9-3.8-1-3.2-.8-4.8.7h-4.6l-1.8,1.8-5,1.8-5-1-2.1-4.1-2.4-2.4s-2.8-1.7-2.8-2.3-3.2-3.2-3.2-3.2l-4-.7-1.7-4-3.8-3-2.7-2.7-3.7-1-1.3-3.5-3.3-1.5-2-2-6.7-.7h-3.5l-4,2.2-5-.8-3.8,1.3h-4.2l-5.7,4.2-2.7,2.7L796,477l-1.1-2.2h-2.8l-.8-3.6-1.4-2.2,2.5-1.5v-1.1h-1.3l-2.2-2.4-1.8-.2.4-4.2-1.1-1.9-1.2-3.2-2.7-1.3-1.9,2.7-2-.7-.2-2.8-1.3-1.3-2-.5-2,2-1,2.5-3.4-.9-1.1-2.1,2-2.5-1.2-1.9-2.2.8-2.9-.7-2-2v-2l2.9-2.9,3.2-2.7h3.2l1.5-1.5,1.8,1.8,2.5.5,1.1-1.1h3.3l1.4,1.8s2.1.3,2.1,0,.6-2.5.6-2.5l4.2.8,1.5-1.5,3-.6,2.8,1.3,3.5,3.5,2.7-1.2,3-.7,1.4-1.9,2.3,1,1.7-1.7h1.8l1.8,1.8,6.6-6.6,3.6.6v-2.3l4.5-1.7,3.2.6,3.3-2.1a22,22,0,0,0-.2-3.4l5.4-3.2,5.1-4.2,1.3.8,2.1-1.1,1.9-2.4,2.7-.4,2.3-2.3,3-.6,3,1.7-1.1,2.9s.3,2.3.1,2.3a24.2,24.2,0,0,0-2.1,2.9v5.1h-1.1l-.9,2.3,1.8,3v2.3l-2,1.1-1.2,2.8,2.1,2.6,4.1.6,1.4-1.3,2.6-.9,4.6,6.3,2-1.8h2.1l3.1-4.5,3.2-1.2,1.1-1.1-.7-3.1.9-2.6,3.2-.6,1.7-1.7,1.8-3.1,3.1-.3,2.9,2.9.9,5.1,3.1,2.1-1.2,4.1-5.4,2h-2.9l-1.3,1.8,3.4,3.4V447l-3,3.4-.4,4.8-2.8,2.6v1.6l-2.3,2.7,2,3-1.6,2.9.7,6.7,1.5,1.7h1.7l1.9,2.9,1.4-1.4,3.6.4.6,2.6,3.1,2.3.3,2.4,1.4.4,1.9,1.4v4l-1.6.7.7,2.6-.8,2,.3,3.7-3.6-.9Z"
          transform="translate(-0.1 -0.1)"/>
    <path class="h"
          d="M934.3,484.5l-4,2.2-1,3.3-2.7,4.3-3,3.8,1.3,4.2-3.5,2.8-3.5,2-3,1-.8,3h-3.2l-3.1-1.7-2.3-.8v-3.8l-2.7-2.4-2.2-2.2-.3-3.7.8-2-.7-2.6,1.6-.7,1.8.3,1.8-2.7,1.5-1.5-.3-3.5,2.7-.4,2.8.5,3.8-1.8,2.7,1.3,3.3,3.9,2.1-2.9,4.6-1c.2-.2,1.7-3.1,1.7-3.1l3.4-.4,2.9-1.1-.3,2.7,1.1,1.1-.4,1.9h-2.9Z"
          transform="translate(-0.1 -0.1)"/>
    <polygon class="h"
             points="953.7 559.6 953.7 561.2 953 565.4 953.7 568.2 952.8 571.5 951.3 572.9 951.3 574.6 951.3 577.2 948.2 577.1 946.8 575.7 948 571.9 950 567.9 950 564.6 948.3 560.6 944.7 557.1 942.8 555.2 941.3 551.4 938.2 548.2 935.2 547.2 935.1 544 937.2 541.9 939 540.1 939 536.7 941.3 534.4 944 533.1 946.8 534 949.2 531.6 950.7 528.6 948 524.4 949.3 520.9 947.7 517.2 947.3 513.4 945 510.2 945.7 507.6 943.8 504.4 947.1 504 947.1 502.6 945.3 500.8 945.7 497.6 948.6 493.6 950.9 494.2 951.6 494.9 953.9 494.9 954.7 493.7 958.1 494.2 958.4 493.1 961.8 492.6 964.4 489.3 964.4 484.6 962.4 484 963 481.2 967 479.8 968 477.5 968.4 474.2 967.1 471 965.8 470.6 964.7 472.7 961.9 473 961.2 470.6 958.1 470.3 957.5 468 960.9 465.2 962.1 460.7 964.1 460.4 966.4 462.2 968.2 464 970.6 463.9 971.6 465.9 970.8 467.6 973.6 469.7 976.3 467.4 976.2 473.6 976.2 473.6 978 478.4 979.3 483.7 980.3 488.6 981.3 495.1 981.3 501.4 980.3 504.7 980.3 511.2 980.3 519.2 979.3 525.2 980.3 531.4 980 539.4 980 543.2 976.7 548.7 974.5 553.4 972 558.1 969.8 558.1 965.7 559.7 962.2 561.7 959.8 560.7 959.8 558.5 958.5 557.2 957.3 560.1 957.3 563.1 955.8 561.7 953.7 559.6"/>
    <path class="h"
          d="M947.9,187.9,950,190v5.4l1.7,4,.3,6.3-1.2,3.8-1.3-3.3-3-1.5v4.2l-2.5-2.5-1.7-1.7-1.3-2.8-4.7-4.3,1.3,3.7-1.3,4h-4.5V208l-1.5,5.5-1.8,2.2.2,7.3,3,2-.5,4.7,3,4.7v5l.9,6.6,2.8,2.8v3l2.3,2.3,2.2-.3,1.9-1.7,1.4-1.4h2.5l-.2,3.2-2.7.8v4.5l-5,.8,1.2,5.8-.5,2.5-3.2,1.1v3.5l-1.2,3.2s-3.9.9-3.2.2-1.5-1.5-1.5-1.5v-2.2l.7-2.2,2.8-.9-1.2-1.2-3,1.2-3.2.5v1.4l-4.7,2.2-2.3,2.8-2.7.7-2.2,2.2-.8,2.5.8,3.2,1.8,1.8-2.2,2.3-3.5-1.3,1.1,3.6-2.6,2.6-2.3,2.2-.8-2.6L904,290h-2l-1.5,1.4-2-1h-2.9l-2.5,3h-2.2l-1.9-2.7V287l3.1-1.7-2.5-3.4v-2.5l-2.2-.7-3.7-2.4-2.2-1.1-6.4-.4-3.4,4H869l.5-3.1-2.5-2.5-.6-2-2.2-2.2-3.9-2-1-2.4-2.7-3.6v-2l-1.4-.6.6-3.3,1.5-1.5-2.3-1.4.5-2.9,4.4-1.8v-1.6h3.3l-.3-3.7-2.5-.7-1.7-2.2,2.1-2h2.1v-2.6l2.1-1.5v-1.9l2.6-.6,1.6,1.9,2.2-.3,1.1-2.4-.7-2.1,2.3-3.6.7-2.4,2.3-.4v-2.1l-1.1-3-2.7-1.6-2.6-2.6-.2-6.4-2.5-1.2-1.8-2.4v-2.8l2-.4-.9-2.7-2.8-.8.5-2.5,2.9-1.1v-2.9l1.4-1.4h3.2l.3-3.4h4l1.7-1.7-1-3.4,1.5-2.8-2-3.2,3.7-1.6,1.7,1.7,2,2.9h2.8l3.3-1.2,1-2.1,3.4.7,4-.4,3.5-4.9,5.3.8,5.5-6.5,4.2.4v1.8l1.1,1.1-.8,2.3,4,1.8.5,2.5,4-.7,1.3,3,2.8,1.1V178l2.1,2.1,2.4-.7h2.9l.5,2h1.9l1.4,1.6-1,3.6H942l1.1-1.7,1.1,1.1v2.3l3.5.4Z"
          transform="translate(-0.1 -0.1)"/>
    <polygon class="a" points="229.5 249 228.9 249.9 229.9 251.2 231.3 249.9 229.5 249"/>
    <polygon class="a"
             points="374.7 214.5 375.4 212.2 375.4 209.9 378.9 209.9 380.6 211.6 382.3 209.9 382.7 208.3 386.5 207.5 385.2 206.2 381.9 205.1 381.9 203.9 385.7 202.8 389.7 201.8 391.6 199.8 394.2 199.8 394.2 198 397.8 197.8 395.9 195.9 399 195.7 400.3 196.9 400.1 193.9 401.6 192.4 399.9 190.4 401 188.8 402.8 190.6 405.1 190.6 405.1 188.3 408.4 189.5 410.1 187.7 411.7 185.7 413.9 185.7 417.5 184.1 420.1 185 423.8 185 426.3 182.5 429.3 182.7 430.7 184.7 433.8 184.7 435.3 186.2 438.1 185.4 441.8 185.4 444.3 182.9 447.3 181.3 451.2 179.8 454.9 179.8 457 183.2 457 186.8 453.8 189.7 450.9 192.4 447.1 192.7 442.6 194.8 438.5 193.3 436.6 195.3 431.9 195.1 425.8 195.1 423.5 197.5 418.9 197.5 415.4 199.5 416.4 201.9 414 202.8 411.1 202.5 408.6 202.5 408.3 204.2 405.5 203.4 405.5 206.2 402.8 208.1 400.6 209.8 400.6 207.2 398.7 208.9 399.2 211.9 397.4 211.9 396.1 210.6 396.1 212.1 396.1 214.3 394.8 213 393.1 214.7 391.6 216.1 389.7 216.1 388.2 218.1 386.2 221.4 383 221.4 380.4 223.5 380.4 226.4 377.9 227.5 377 230.5 374.8 232.6 374.8 236.4 373.8 239.1 375.1 243.1 373.9 247 375.6 249.6 376.4 252.3 375.4 253.2 372.9 254.4 372.9 252.4 370.5 251.1 370.5 251.1 368.8 251.1 367 248.3 365.9 249 362.7 245.9 360.3 243.4 361.2 240.6 363.6 239.9 364.6 238.4 362.9 237 363 233.4 362 233.1 360.9 230.4 358.7 230.2 356.8 227.6 357.4 224.3 359.9 221 362.7 221.3 363.6 222.3 364.7 222.8 365.2 220.8 368.6 219.8 371.4 216.9 369.5 214.9 372 213.4 374.7 214.5"/>
    <polygon class="a"
             points="468.3 105.4 468.3 103 466.8 102.4 466.8 102.4 465.6 102.8 466.6 104.1 466.6 105.4 468.3 105.4"/>
    <polygon class="a"
             points="465.6 114.4 462.3 115 460.2 116.1 461.8 116.9 461.1 118.6 462.4 119 465.2 119 467.4 116.8 469 115.2 468.4 112.8 466.4 113 466.4 113 465.6 114.4"/>
    <polygon class="a"
             points="459.1 109.9 457.7 109.9 456.1 110.8 456.1 110.8 455.4 111.5 456.7 112.8 459.1 111.9 459.1 109.9"/>
    <polygon class="a"
             points="454.2 114.7 454.2 114.7 452.4 112.6 451.1 114 450.1 116 450.1 118.5 452.2 118.9 452.7 120.4 455.3 119.8 457 118.1 458.2 116.8 458.9 114.8 457.1 114.8 454.2 114.7"/>
    <polygon class="a" points="446 124.2 446 125.8 447.7 125.8 448.3 123.8 446.8 123.4 446.8 123.4 446 124.2"/>
    <polygon class="a"
             points="447.4 116.9 445.7 115.2 443.3 117 443.3 117 442.4 116.1 439.7 116.1 439.7 118 438.2 119.5 439.1 120.4 442.1 119.8 443.2 120.9 445.8 120.3 446.6 118.5 448.4 119.1 447.4 116.9"/>
    <polygon class="a" points="457.2 96.1 456.4 97.6 457.7 99 459 97.7 457.2 96.1"/>
    <polygon class="a"
             points="452.4 99.6 452.4 101.9 454.6 104 454.6 105.8 456.4 104.9 455.3 102.5 454.4 99.6 454.4 99.6 452.4 99.6"/>
    <polygon class="a" points="441.9 106.1 440.2 106.1 439.8 106.5 441.2 108 441.9 106.1"/>
    <polygon class="a" points="443.4 109 442.2 110.2 443.4 111.5 444.8 111.4 443.4 109"/>
    <polygon class="a" points="444.6 103.5 444.6 105.1 446.3 105.1 445.9 103.3 444.6 103.5"/>
    <polygon class="a" points="447 107.6 447 109 448.4 109 447.3 107.9 447 107.6"/>
    <polygon class="a" points="449.1 111.5 450.2 110.4 448.4 110.9 448.4 110.9 449.1 111.5"/>
    <polygon class="a" points="450.2 104.3 450.2 106 451.7 106.1 451.7 104.3 450.2 104.3"/>
    <polygon class="a" points="447.9 100.8 448.8 102.4 449.6 101.6 448.8 100.8 447.9 100.8"/>
    <polygon class="a"
             points="434.3 110.9 433.1 109.3 431.8 111.3 431.8 111.3 430.9 112.2 432.5 113.8 434.3 113.9 434.3 110.9"/>
    <polygon class="a" points="435.9 109.3 436.6 111 437.8 111 437.8 109.5 435.9 109.3"/>
    <polygon class="a"
             points="426.2 103.3 423.7 101.5 421.6 102.6 421.6 104.1 418.9 102.3 416.9 103 417.6 106 419.4 105.4 419.4 107.4 421.4 107.9 423.2 106.1 425.8 105 427.9 105.6 431.1 105.6 433.3 103.4 431.2 101.3 432.6 99.8 430.2 98.4 428.9 99.3 428.9 99.3 427.7 100.5 427.7 101.9 426.2 103.3"/>
    <polygon class="a"
             points="424.2 96.6 422.9 96.6 421.8 96.1 421.8 96.1 419.1 96.1 417.4 94.5 416.3 96.8 417.7 98.2 418.3 99.9 421.6 98.8 422.7 99.9 424.8 99 425.7 99.9 425.7 98 424.2 96.6"/>
    <polygon class="a" points="424.2 109.3 423.2 109.3 423.6 110.9 425.8 111 424.2 109.3"/>
    <polygon class="a" points="423.6 113.8 424.4 114.6 426.6 115.1 425.2 113.8 424.7 112.6 424.7 112.6 423.6 113.8"/>
    <polygon class="a" points="433.8 96.5 433.8 98.1 435.1 98.1 436.3 96.9 433.8 96.5"/>
    <polygon class="a"
             points="232.7 265.2 231.8 269.4 227.7 272.4 224 268.7 220.6 265.3 219.7 266.4 218.4 268.3 216.7 267.1 215.9 267.9 214.7 266.2 213.7 267.4 213.8 270 212.8 272.3 210.8 273.4 209.9 275.2 209.5 279.4 212.7 282.6 211.4 286 208.7 286.8 209 289.1 208.4 291.7 205.1 295 203.9 295.3 202.7 296.7 200.1 301.8 200.5 303.4 199.2 304.7 200.1 309.3 202 310.5 202 312.6 204.6 313.9 205.3 315.6 206.3 316.2 207.9 317.8 209.6 317.8 211 319.2 211.6 321.1 214.9 321.2 217.4 321.9 218.6 323 220.7 323.6 221.5 325.6 223.5 327.6 224.8 328.6 224.8 330.2 226.2 330.7 229 330.7 229 329.6 230.3 330.1 232.2 330.1 232.2 332.2 233.3 333.4 234.3 333.4 234.3 334.7 236.3 335.7 237.5 337 239.3 335.2 239.8 333.7 241.6 334.6 242.8 336.7 241.4 338.1 243.3 339.2 243.3 340.2 244.8 340.2 246.6 341 245.8 341.8 246.8 343.4 247.9 344.4 249.7 342.9 250.9 343.3 251.8 344.8 252.5 345.4 254.1 347.1 253.5 348.9 255 349.6 257.1 349.1 256.9 347.9 258.3 348.3 261 348.3 261.3 349.6 263 350 264.4 348.3 266.1 347.1 267.5 344.6 265.6 342.8 266.9 341.5 268.9 340.2 269.2 338.7 271.8 337.1 274 334.9 275.4 334.3 277.5 332.2 276.1 330.8 275.9 328.6 274.3 329.4 273.2 328.3 271.7 328.3 269.5 328.7 268.6 330.9 267.5 330.5 266 332.6 264.6 331.2 262.9 330.6 261.3 329.9 261 327 263 326 262.7 324.1 263.5 323.4 264.1 321.7 266 321.2 268.3 321.8 268.8 320.2 268.4 317.6 267.2 316.4 267.8 313.9 270.1 312.5 270.1 310.1 270.8 307.7 269 306 267.3 303.5 267.3 301.5 266.8 299.2 268.9 299.2 271.3 301 273.3 301.6 274.7 303.1 277.5 303.6 279.9 305.1 282.6 307.7 283.1 310.3 285 309.3 287.3 308.5 289 309.6 291.2 310.1 293.3 311.7 294.8 311.7 295.8 312.8 297.3 311.3 298.8 308.7 297.5 307.5 297 305.2 298.1 303 297.3 301.4 295.4 299.5 294.7 298.1 296.1 296.6 297.3 295.4 297.3 294.2 298.5 293.1 299.4 290.6 301.3 288.7 299.9 287.4 296.7 285.9 296.3 286.9 293.5 287.9 291.9 287.3 289.9 285 288.4 283.5 287.8 280.6 285.2 278.1 283.7 276.1 282.8 272.6 281.5 269.9 280.2 268.2 280.2 268.2 277.3 271.1 275.2 273.7 275.2 270.1 277.5 267.7 274.7 263.4 272.8 261.5 269.7 261.5 265.2 262.9 261.2 260.7 256.3 262.6 251.2 261.7 251 267.6 248.2 269.9 249.3 272.7 247.9 274.1 243.2 272.7 241.3 268.9 238.4 266 237.5 261.1 236.5 253.6 233.7 253.6 230.8 256.6 230.8 259.4 230.5 263.1 232.7 265.2"/>
    <path class="h"
          d="M936.6,374.3l-1.2.3-.9-2.5v-2.2l3.7,1,1.9.9,1,2.3,2,2,3.6.7.9,2.3,4,2.6h2.2l1.7,2.5,1.4,3.9,2.2,2.2,4.3,4.4,2.7.7,3.8,1.4,3.6,3.2,4.9,2.7,3.2,2.7,4.2,2.2,3.6,2.2,2.3,1.9,4,1.6-.6,1.9-1.4,1.4-2.7.9h-2.2l.6,3-.6,2.2v1.7l2.5,3.8s2.3,2.6,1.9,3,.1,4.5.1,4.5l1.9,1.9,2.9,2.9,2.5,1.6h3.7l2.2,2.2h2.5l1.3,2.7h3.2l1.9-1.9,3.4,1.9,2,2.6s.7,1.7,0,1.7a30.7,30.7,0,0,1-4.6-1.9l-1.7,1.7h-3.7l-1.2,3,.7,2.9,2.3,2.3,1.7,3.8L1012,465l-1.9-2.3-2.5-2.5-4.3-4v-2.7l-2.9-2.9-2.7-2.7-1.9-2.5-2.3-4.5-2.9-2.7-3-1.7-2.9-.9-2.5-5.2-5.3-7.4-4.3-4.3-3.6-3.6-3.2-4.3-2-3.3-5.5-2.5-4.3-1.9-2.6-.3-3.5-4.8v-2.2l-3.7-3.7-2-3.7-4-1.3,1-2.9V382l3.3,1,.6-2.9-1.9-1.9v-1.1l-1.9-1.9-2.8-1Z"
          transform="translate(-0.1 -0.1)"/>
    <polygon class="h"
             points="1061.2 449 1058.3 449.5 1058.3 449.5 1058.9 452.5 1059.2 455.4 1060.4 455.8 1060.4 453.5 1061.2 451.6 1061.2 449"/>
    <polygon class="h" points="1068.3 451.2 1068.3 452.5 1070.2 453.5 1070.2 451.4 1068.3 451.2"/>
    <polygon class="h"
             points="1062.9 432.4 1062.1 435.2 1062.4 439.5 1062.4 439.5 1064.1 440.3 1064.7 437.9 1063.8 433.3 1065.4 431.7 1065.1 428.4 1062.7 427.7 1061.9 431.5 1062.9 432.4"/>
    <polygon class="h" points="1066.7 420.5 1066 421.2 1066.6 423.7 1067.7 421.9 1066.7 420.5"/>
    <polygon class="h"
             points="1068.4 411.7 1069.2 408 1068.2 405.6 1068.7 403.2 1070.7 401.2 1071.2 403.9 1070.7 406.7 1071.3 409.8 1070.3 412.1 1068.4 411.7"/>
    <polygon class="h"
             points="1071.8 379.4 1070.3 379.5 1070.3 379.5 1070.3 382.7 1070.3 385.3 1072.3 385.3 1071.8 382.9 1071.8 381.3 1071.8 379.4"/>
    <path class="h"
          d="M990,276.7a22.2,22.2,0,0,0,2.2,4l4.5,3,4.7,2.5,7.2,2.2,3.3.7,3,2,1.8,2.5,6.3,3.3,5.5,2.3,5.8,2.7,3,3h3.3l2.4,2.4,3.1,1.6h4.8l1.8,2.5v-3.3l-.8-4.5-1.7-7-.7-5.3-3.2-3L1042,284l-2.8-1.2-1.7-6,1.3-3v-3l3.7-.5v-2l-4.8-1.2-1.4-1.4-2.9-1.1-3.3-5.2-1.2-6.7,1.7-3.7,2.8-1.8,2-1.3-1.2-3-3.3-2.7-5.7.7-2.4-2.4-3.1-.7-3.5-5.8-1-4,3.3-1,1.3-3.2-3.2-3.2h-2.7l-1.7,1.7-4.3-1-4.3-3-.8-3.8-4.3-4.3-1.2,2.5-1.6,1.6v1.4l1.3,2.8h-4.7l-2.7-2.7-4.6-2.4-.5-3.7-.7-4.7-3.2-3.2-2.3-2.3-2-2-2.5-4.2,1.8-1.8v-4.3h2l3.1-3.1-3.1-1.4v-3.3l-1.8-4.8,2-.2,2.3,2.3,3.2,1.5v-2.7l-2.8-4.3v-2.5l1.3-4.7-1.8-1.8,3.5-5,2.2-5,4.2-1.3,3,1.5,2.8-2.5-1.8-1.8-2.8-3.2-1.7-6.7v-4.8l-3.2-2.8-1.7-5.2-.8-5.3-1.7-4-1-4.7-1.8,2.6-2.9.2-2.1-2.1-2.5.8-.7,4.3-1.2,4.3-2.5,3.9s1.5,1.5,1.5,2.2a43.3,43.3,0,0,1-1.7,5.1l-1.7,3.7-2.8,1.7-1.9-1.9-2.5.8-2.3,2.3-2.9.5-2.6,3.4-2-2-1-2.8-1.4-2.6-.9-3.4-2.1-.6-2.9,2-1.7,1.7-2.4-1-4,.6.8,2.5-1.4,2-1.8-.5-4,1.2v2.9l-1.8,1.3-1.1,3.5-2.8-.2-3.3,2.5,1.2,1.2-1.7,1.7-2.7,1.5-1.5,3v2.9l1.2,1.4,4.2.4v1.8l1.1,1.1-.8,2.3,4,1.8.5,2.5,4-.7,1.3,3,2.8,1.1s.1,1.8.1,2.3,2.1,2.1,2.1,2.1l2.4-.7h2.9l.5,2h1.9l1.4,1.6-1,3.6H942l1.1-1.7,1.1,1.1v2.3l3.5.4,1.6-2.2,1.5.2.3-2.2h-3.3l-2.7-2.7-2.9-2.9-2-1.8,1-2.7v-3.5l3.7-2,2.6-2.6,1.1,1.1-3.2,3v3.4l3.5,2.2,2.3,3,1.9,1.9,2.1.8h2.2l2.2,4.2,2,2v5.2l-1.2,4,.2,3.3,2,1.7,2,6.2,1.7,4.2,1.5,5.2,1.3,5.5,3.2,4.2,2,6.2.8,5.3,1.7,5-1.2,1.3-1.5,1.5,1.6,2.8-1.2,2.5-1.4,1.4v1.4l3.1.7,2.8,4,.5,3.8,2.3,2.3v3.2l3.3,3.5,4.8,4.8Z"
          transform="translate(-0.1 -0.1)"/>
    <polygon class="h"
             points="986.1 199.4 987.8 200.6 989 202 989.1 204.6 991.4 205.5 990.9 202.9 989.8 200.9 990.9 197.6 990.9 193.5 988.1 192.4 986.4 193.4 986.4 193.4 986.4 196.5 986.1 199.4"/>
    <polygon class="h"
             points="1040.5 209.2 1041.5 211.4 1044.9 211.4 1048.4 211.4 1050.6 209.2 1047.8 208.4 1045.1 209.5 1042.5 208.5 1042.5 208.5 1040.5 209.2"/>
    <polygon class="h"
             points="1053.9 316.2 1052.4 314.8 1052.4 314.8 1051.6 317.4 1050.2 318.8 1051.8 320.3 1052.7 322.3 1052.4 324.9 1052.3 328.2 1053.8 329.7 1055.5 328.8 1055.5 325.3 1057 323.8 1055.7 320.9 1053.7 318.8 1053.9 316.2"/>
    <polygon class="h" points="1061.1 338.9 1058.6 337.3 1058.6 337.3 1058.6 339.5 1060.1 340.2 1061.1 338.9"/>
    <polygon class="h" points="1056.6 200.6 1054.7 201 1054.7 201 1052.9 202.3 1053.9 203.3 1055.2 202 1056.6 200.6"/>
    <path class="h"
          d="M981,111.4v-6l-1.2-5.3L977,95.8l1.3-1.2L974.4,92l1-1.5h3.4l2.2-4.7,3.3-1.3V80.9l-2.4-2.5-1.2-2.9-2.7,2L976.2,76l-2.2.3-1.7,1.8h-2.9l-.8,1.6h-3V77.4l-3.7.2-2,.3-2.5-.2-1,1.7-2.2,2h-3.6l-2,1.5v3.2l-2.2.8-1.6-1.5,2.7-3.2h-1.8l-2.9,1.2,1.2-2.7,3.5-1.5H950l2.7-4.3-.7-3.8-1.3-4.8-2.8-2.9-2.6-2.6-1.5,1.6-.2-3.2h-2.5l-3.7,1L935.2,58V55.7l-2.9-.5,1-1,1.5-.7-1.2-1.2.3-1.6,1.7,1,1.8,1.5h3.2l2.2-1.7,2.2,1.7,2.8-2.7V46.2l-1.2-2.5,2.8-4.2h3.2l2.5,1,3.5-1.2,1.8-4,3.5-3.8,3.8-.3,1.5-4.3-2.8-.8V24.7h3.5L968.7,22V19.9l-1.8,2.3-1.8.5-2.5-3.3-3.1-3.1v1.8l-3.9-1.5-1.8,1.8-3-.5,3.8-2.5V11.9s1-3,0-2-3.5,1-3.5,1l1.8-3.8-1.6-1.7-2.2-1.8s1-3.8,0-2.8-3.8,1.8-3.8,1.8l-3,4.2h-1.2l-4,1.5-2.3,2.2-1.7,2.3-.3,3-1.8-.2v1.5l2.7.7L930.5,20l-1,3,3,.8,4.7.3,4-.8v2l-4,2.2L935,29.8l-3.4-2.6-4,1.2-2.7-2.7L922.6,27l-3.7,1.7-3,3.2-5.7,1.7-3,4.3L903,39.6,899.6,43l-3.3,3.3-3.5,2.1-5,2.2-2.6,2.6-5.7,5.7-5.1,4.9-1.3,4.8-2.8,4.2-1,3,1,2.8H868l-2.7,1.5-.3,3.5-3,1.5-.8,3.2v1.8h3.3l1,2.3,4.2-.7,5.7,2.5,1.8.3,1,2.7-.8,2.7-3.3.8-3.7,1.7-2.7,1h-3.9l-2.5-2.5,2.4-2.4-3.2-3.2-1.7,1.8-1.8,3.3,2.3,3.3-.7,2,1.7,1.7-1,4-4.2,3v3.3l-2.2,2.2h-2.5l-1.5,2.8v5.5l1.3,1.9,4,1.4,3.3.4.8,2.1,3,1.1,2.6,4.4-3.4,2.6-1.6,4v3.3l-2.3,1.6v3.4l-2,3.1,1.4,3.3,2.6,1.5v3.9l3.3.5,3.1,1.4,3.4-1.1h2.7l2,2,1.8,3.5h1.9l3.7-1.6,1.7,1.7,2,2.9H887l3.3-1.2,1-2.1,3.4.7,4-.4,3.5-4.9,5.3.8,2.3-2.3L913,162l-1.2-1.4v-2.9l1.5-3,2.7-1.5,1.7-1.7-1.2-1.2.8-.8,2.5-1.7,2.8.2.7-3.1,2.2-1.7v-2.9l4-1.2,1.8.5,1.4-2-.8-2.5,4-.6,2.4,1,1.7-1.7,2.9-2,2.1.6.9,3.4,1.4,2.6,1,2.8,2,2,2.6-3.4,2.9-.5,2.3-2.3,2.5-.8,1.9,1.9,2.8-1.7,1.7-3.7,1.7-5.1-1.5-2.2,2.5-3.9,1.2-4.3.7-4.3,2.5-.8,2.1,2.1,2.9-.2,1.8-2.6Z"
          transform="translate(-0.1 -0.1)"/>
    <polygon class="h"
             points="862.6 45.9 864.4 44.1 865.7 41.7 864.2 40.1 866.4 36.9 866 33.4 866 29.3 863.9 27.6 863.9 27.6 862.6 27.1 861.4 28.3 858.9 29.6 856.8 31.7 857 35.2 856.1 36.1 856.6 39 858.2 41.4 859.9 45.4 862.6 45.9"/>
    <polygon class="a"
             points="39.8 257 42 256.4 42.9 254.7 44.9 255 46.8 256.9 46.9 259.5 48.4 260 48.7 262 51.1 262.4 51.6 260.5 50.3 259.2 51.4 258.1 52.1 258.8 54.4 260.7 54.4 263.6 54.1 266.1 55.4 268.2 56.8 269.1 57.2 272.3 56.1 274.8 50.5 277.6 42.1 267.6 37.2 256.4 37.2 256.4 39.8 257"/>
    <polygon class="b"
             points="128.6 366 128.6 367.9 126.4 368.3 124.5 366.4 122.8 365.5 120 366.2 118.6 367.6 117.1 367.1 114.8 370.2 111.1 368.8 108.4 368.8 106 368 105.7 365.6 104.1 363.9 104.1 362 105.3 360.7 105.3 358.2 106 355.7 104.7 354.4 104.8 352.8 104.8 352.8 103.3 350.3 105.5 349.8 107.9 347.4 110.2 347.4 111.8 349.1 112.3 351.1 114.8 351.3 115.6 350.5 116.9 350.9 119.1 352.6 121.2 351.3 123.5 351.3 126.6 350.6 128.9 351.3 130.2 353.7 131.7 355.3 134.4 355.3 135.4 357.2 136.5 359.1 135.3 360.8 134.4 362.6 134.4 365.1 131.9 366.7 129.5 365.1 128.6 366"/>
    <polygon class="a"
             points="136.9 287.9 135.8 285.6 134.3 286.2 133.1 287.4 130.9 287.2 128.2 287.5 126.9 288.7 126.9 290.9 125.7 292.1 126.3 293.5 128 294.7 127.3 297.1 125 298.1 123.3 299.8 121.9 300.6 121.9 302.9 120.4 303.6 119.1 305 120.5 306.4 121.5 308.6 123 310.1 125.9 310.1 127.4 311.5 129.9 311.4 131.9 312.6 135.4 312.6 137.3 314.4 139.6 314.7 141 313.3 143.8 313.3 145.6 311.5 147.8 311.5 149.6 312.4 151 313.8 151.6 316.2 154 316.2 155.6 318.2 157.7 318.2 158.2 316.8 159.6 318.2 161.8 319.2 164.6 320.3 164.6 320.3 165.8 319.1 166.2 316.6 164.1 313.2 161.7 312.3 162.4 310.8 163.5 308.8 162.6 306.3 162.2 303.8 160.8 302.5 158.9 301.8 159.9 299.7 159.9 297.7 157.8 296.8 157.6 294.8 155.2 294.6 153.8 296.1 151.9 293.8 152.5 289.5 151 289.1 149.3 287.4 147.7 288.8 146 289.2 143.4 288.1 140.8 287.9 136.9 287.9"/>
    <path class="b"
          d="M140.9,338.4v2.2h.9l.3,1.8h2.5l1.4,1,2.2,1.2h2.6l1.7,1.7h2.8l2.3,1.3,2.2.6,1.9-1.8,3.2-2-1.2-2.7v-1.6l1.8-1.8-.7-2.9,1-2.2h2.4l1.1-3.4,3.2-1.4v-3.3l.9-2.8-2.4-.8-2.7.5-1.9-.8-1.6-.8a12.5,12.5,0,0,0-2.4-1.1l-2.7-1.1-1.4-1.4-.4,1.4h-2.2l-1.6-1.9h-2.4s-.1-2.4-.6-2.4-1.3-1.3-1.3-1.3l-1.8-.9h-2.2l-1.8,1.8h-2.8l-1.4,1.4-2.3-.3-1.9-1.9H132l-1.9-1.2-2.5.2-1.5-1.5h-2.9l-1.5-1.5-1-2.2-2.6,2.2-.3,2.1-1.5,1.5-.3,3.5-.9,2-1,1.8h-2.3l-1,2.8.3,1,2.3,1.3.6,3.4,2.1,2.1,2.3,1.3,1.6,1.6,3.3.8,2.6-.7,2.8.8v1.8l1.3,1.3,1.3,2.5,1.8,1.4,1,1.9,1.1-1.4h1.9l1.3-1.9,2.6-1Z"
          transform="translate(-0.1 -0.1)"/>
    <path class="b"
          d="M156.5,366.4l-.8-1.6v-2.2l-1.6-.7-.8-2.2,1.9-1.4v-2.2l1.4-1.4.6-2.1,1.9-.9s-.7-1.9-.5-2l1.2-1.4-2.2-.6-2.3-1.3h-2.8l-1.7-1.7h-2.6l-2.2-1.2-1.4-1h-2.5l-.3-1.8h-.9v-2.3l-2.6,1-1.3,1.9h-1.9l-1.1,1.4-.8,2.8-3,1.3-2.2,2.3-1.2,1.8,2.3.7,1.1,2.1,1.6,1.7h2.7l1,2,1.1,1.8-2.1,3.5v2.5l1.5,2.4,2.1.4v1.8l-.7,2,.6,2-.8,2.8.3,2.3,2.5-.4.4-1.8,2-.4.7.7h3l.9-.9,2.6.5,1.6.6,1.7-.4.7-.7,1.9.2h2v-2.4l1.1-.5.6-1.7.2-3.2-1.3-1.3-1.6-.6Zm-8.2-8.5-1.1,1.4.4,1.8h-2.3l-.6-.6-.7-.7-1.2,1.2h-1.7l.7-1.8V356l1.2.2,1.1-1.5-.4-.9,1.1-.9,1.5-.4v1.1l.6,1.1v.2l1.6.7,1.1,1.1-1.3,1.2Z"
          transform="translate(-0.1 -0.1)"/>
    <path class="b"
          d="M144.7,353l-1.1.9.4.9-1.1,1.5-1.6-.3-2.5,1.6L135,356l1.5,3.2-1.3,2.2,3.9-1.3,1.5,1,2-.2,1.2-1.2.7.7.6.6h2.3l-.4-1.8,1.1-1.4,1.3-1.2-1.1-1.1-1.6-.7h0v-.2l-.6-1.1v-1.1Z"
          transform="translate(-0.1 -0.1)"/>
    <polygon class="f"
             points="477.1 256.2 475.3 256.7 475.3 256.7 473.6 258.3 471.8 259.8 473.5 261.1 474.8 259.8 476.9 259.8 478.9 258 477.1 256.2"/>
    <polygon class="f"
             points="473.5 241.8 472.9 240.5 469.8 239.9 469.8 239.9 468.5 241.1 469.4 242.5 471.2 241.2 473.5 241.8"/>
    <polygon class="f" points="462.9 245.9 462.1 247.9 463.3 249 464.7 247.3 462.9 245.9"/>
    <polygon class="f"
             points="449 235.6 447.3 236.3 446.7 236.1 446.7 236.1 445 237.3 445.6 238.7 444.4 240.3 444.7 241.4 447.4 242.1 450 240.9 451.5 241.1 451.5 239.6 449.1 239 450.3 237.6 449 235.6"/>
    <path class="f"
          d="M398.1,305.3l.3-1.8,1.3-.7.8-1.8h1.6v-5.7l-1.2-.4-.3-1.2-1.6-1.5,2.6-2.6,1.4-2,1.3,2.7,3.9,3.9,2.7,4.2,2.8,3.8v3.2l2.3,3.7,3.3-2v-3.5l3.8-3.5-2.7-.8-1.8-4.3.7-4.7-3.2-2.2-1.7-3.6,1.6-1.6,3.3-1.7v-2.7l.8-4,1.5-2V270l-2.2-.7,1.2-3.3,1.8-2.3,3.3-1.2,3.6-1.7,1.3-1.2,2.8-2.8,2.2-4.8,1.7-4,1.8-4,3.2-1.7,2,2.8h4l2,2h3.5l1.5,5.7-1.7,1.7-.8,5.9-4.7,4.8-1.3,4.3,2.8,2.5-1,5.7-.8,4.5-3.3,5-1.2,7.2-1.8,6.3-1.3,3.2,1.3,4.4,2.9,2.9-.5,2.7-3.7,2.8-.7,6.2-3.7,1-4.3,4.3-2.5,3.7-2.3,1.3-4.2-.8-2.5,1.7-2.7-1.7-1.7-1.7-2.5-.8v3.2l2.5,3.8,2.5,1.2,3.3,2.3,2.8-.2,2,2.8h3s1.3-2.2.6-2.9,1.8-1.7,1.8-1.7h2.2l1-1,4.2-1.2,3.3-1.8v-3.5l1.5-1.5,2.6-2.6,2.1-2.1,1-4-.8-3.5-.3-3.2,2.3-2.2,2.3-2.2h3.5l3.8-.5,1.1,3.2,1.6,1.6,2,5.2-2.7,2.7.2,4v2.5l3.3,3.3,3.8.8v-2.3l-3.7-1.1-1.4-1.4v-2l-.3-3,2.7-.8,1-2.2-1-3.2,1.2-2.7-1.7-3.3-2.2-2-1.3-1.3-4.1-1.4-2.3-2.3-1.9,1.9-2.5,1.2-1.3-1.8h-3l-.5-3.2,2-2-.5-5.3,2.3-3.7,1.5-4.3,3.3-3.3-1.2-3.7-1-3.2.4-3.4-2.4-2.4,2.7-2.7,4.2-4.2h3.5l2-3.2,1.3-3.5-1.2-2.8,1.2-2.5h2.7l-.8,3.5v4.6l-.7,4.3-3,3v7.2l3.5,2.7,2,1.7,2.6-1.6,2.6,2.6,2.8,2.7v-2l-1.1-2.6-1.9-1.9-3-1.5v-1.3l-2.5-2.5-1.2-3.7,3.5-2.3,1.7,1.7,2.7,2.7,2-1.8-.7-2.2-.8-2.2,1.9-1.9.2,2h1.6l.7,1.8,1.3,1.3,2.3.6,2.3,1.3.6,2.2-1.6,1.6.3,1.8-3.2.5-1.4,1.4-.9.9,1,2.2.8-.8,1,2,3.6,2-.3,4v5.8h-3.3l-1.2,2-2.5,2.5-3,2.3.2,3.1,1.5,1.5.5,1.8,2.1,2.1,3.2.5.4,2.2,1.1,1.1,2-1.7,1,1,2-1.9v2.8l2.6.5v2.5l1.6,3.8-.9,2.4h-1.2l1.3,2.5-1.6,3.3-1.8,1.8-.6,2-2.3-.5v2.7l1.6,1.6.5,3-1.4,2.5,1.5,1.5v2.4l3.7,2.2,1.4,2.9-2.2,2.1v1.7l1.2,2v3l-1.5,1.2,1.8,3.3h2l2,2,1.5,3,.3,3.8-1.7,1.7.8,3.5,3.8.8,1.9,1.9,1.9-1.9.7,4-.7,3.5,1.2,2.7-2.2,2.3-2.4,3.1-1.7,3.2,2.5,3.5v4.2l-2.4,2.4-.2,3.8-1.4,1.4-3.9,3.9-3.5-4.3h-2.3l-2.5.8-2.5-4.2-4.8-1.5-1.6,1.6-3.4-4.4-1.3-3.5-3.5,2.3-3,1.7-1.3,2.3H454l-2.7-2.7-3.5-1.8,1.2-3.2-4.5-1.8-1.6,1.6-2.7-2.7-4.1-1.1-2.8.7-3.3-3.5h-2.8l-2.5-4h-2.8l-5.8.7-1.2-3.3.8-3.3-3.7-3.7v-2.9l-.9-4.5-4-4h-4.5l-1.8,1.8-2.5-2.5-2.3,2.3-4.5-.8-2.5-2.8,2.9-2.9-3.7-3.2-3.8-2-3.5,1.5-3.5-1.5-4.5,1-3.2-3.2-2.8-2.8-1.6-1.6,3.1-3.1,1.3-4.1-.7-4.5.3-5.5,4.3.2v-3.7l5.3-3,5.3-1.2h5.7l1.2-3.7h3.2l3-3,4-2-2.6-2.6,3.1-1.2v-2.2l-3.3-1.7.3-1.2Z"
          transform="translate(-0.1 -0.1)"/>
    <polygon class="h"
             points="898.7 395.1 900.2 393.7 900.7 390.8 899.1 388.5 896.4 389.1 896.4 389.1 895 390.6 895 392.7 895 394.8 897.4 393.8 898.7 395.1"/>
    <path class="h"
          d="M846.1,415.2l-1.9-4.4v-3.3l-2.2-2.2,1.9-1.9.6-4.3-4.6-2h-3.7l-.4-2.2,2.6-.5-1.4-2.7.7-5.1-3.1-.5-3.1-3.2,2.7-.6.3-4-1.2-1.2-.7-2.1,1-2.6-2.1-2.1,1.8-2.4-1.5-1.5v-3.6l3.4-1.8,2.3-1.2,2.7.3,2.2-2.2,3-1.2.4-2.9-1.9-1.9,1.1-2.8,3.9-.7,5.1-5.1-.2-5.7,3.6-1.2v-1.9l-3.6-3.6-.8-2.5-4-4-2.6-.6-.5-3.2.6-3.9-2-2,3.1-4v-3.5l.2-4.4-1.6-1.6-.8-3.1-1.5-1.5v-3.9l2.9-.6,2.5.6,3.2,1.8,3.2-1.7,2.6-.8,2.6-2.6,1.9-3.3h2.5l1.5-.9,1.1,1.1,1.4-.5V283l-.2-4.6h2.7l3.4-4,6.4.4,6,3.5,2.3.8v2.5l2.5,3.4-3.1,1.8v3.6l1.9,2.8h2.3l2.5-3h2.9l2,1,1.5-1.4h2l3.6,3.6.8,2.6h-2l-2,1.8,1.3,2.2,1,1-2.8,1.8h-3.8l-3.7,3.7-2.4,2.4-2.7,4.5-2.8,2.8-2.8,5.7-.5,5.5,2.7,5.3-2.5,2.5-.8,5.3,1.5,3.8,2.3,2.3-2,3.3v10.5l-1,4.2v5.7l1.7,1.8v8.5l-1.5,5.7V391l-2.5,4.2v4.2l-1.3,3.7,1.5,3.4h2.5l2-2h2.7l2.2-2.2,2.4-2.4,1.7,1.7,2,1v2.2l1.6,2.9,2,2,1.8-1.7v-2.6l-2.3-1v-2.5l1.8-2v1.7l2,1.5,1-.3,1,1V409l3.3-1.3V406l1.8-2.5,1.2-1,1.8,1.3.4-2.7-1.6-1.6-1.5-2.8-1.8-3.3,3-1.7,1.8-1.8,3.7-.8h4.3l3.6.4,1.6,1.6s3.8-.7,4.7-.7a14.2,14.2,0,0,0,3.2-1l2.1,2.1-1.6,1.6-1.2,1.2-1,1.8h5.8l.7,2.2,2.5,2.5,3.1-.4,1.6,1.6,1.7,3.2.5,6.3,2.2,6.7,3.4,4.9,4.3,4.3,1.7,1.7.8,2.8,3.3,3.3,2.3,4,.8,2.3,3.1,4.8,2.6,2.6v7l-1,6,1.8,6-2.7,2.3-2.8-2.1.8-1.7-1-2.1H969l-1.8-1.8-2.3-1.8-2,.3-1.2,4.6-3.3,2.8.6,2.3,3.1.4.8,2.4,2.8-.3,1.1-2.1,1.3.4,1.3,3.2L969,478l-1,2.4-4,1.4-.6,2.8,2,.6v4.2l-2.6,3.3-3.4.5-.3,1.1-3.4-.5-.8,1.1h-2.3l-.7-.7-2.3-.7-2.9,4-.4,3.2,1.8,1.8v1.4l-3.3.4-.8-3.7-4.2-3.2,2.5-2.5v-3.7l-2.1-2.1-2.4-2.4-.7-2.2.4-1.9-1.1-1.1.3-2.7-2.9,1.1-3.4.4-1.7,3.1-4.6,1-2.1,2.9-3.3-3.9-2.7-1.3-2.5,1.1-1.3.7-2.8-.5-2.7.4.3,3.5s-1.2,1.9-1.5,1.5-1.6,2.9-1.6,2.9l-1.9-.5v-4l-1.9-1.4-1.4-.4-.3-2.4-3.1-2.3-.6-2.6-3.6-.4-1.4,1.4-1.9-2.9h-2l-1.8-1.8-.7-6.7,1.6-2.9-2-3,2.3-2.7v-2.3l2.8-2.6.4-4.8s3-3,3-3.4-.1-2.2-.1-2.2l-3.4-3.4,1.3-1.8h2.9l5.4-2,1.2-4.1-3.1-2.1-.9-5.1-2.9-2.9-3.1.3-1.8,3.1-1.7,1.7-3.2.6-.9,2.6.7,3.1-1.1,1.1-3.2,1.2-1.6,2.2-1.5,2.3s-1.9-.3-2.1-.1l-2,1.8-4.6-6.3-2.6.9-1.4,1.3-4.1-.6-2.1-2.6,1.2-2.8,2-1.1v-2.3l-1.8-3,.9-2.3h1.1v-5.1l2.1-2.9v-2.3l1.1-2.9-3-1.7-3,.6-2.3,2.3-2.7.4-1.9,2.4-2.1,1.1-1.3-.8Z"
          transform="translate(-0.1 -0.1)"/>
    <path class="d"
          d="M78.4,480.8l-1.3-1.7-1.8-.8-1.8-2.9L72.1,474l2.3-1.8-.5-2.6,1.8-.6-1.3-1.3L69.9,463,68,464.1l-1.8-1.7.2-1.7.6-2.2-2.3-1L63.2,459l-2-1.8-1.8-1.3-2-.3-.7,2.2,1.3,2.5-.5,4.2-2.5-.8H53l-3.8.2-2.8,1.2-1.3,2.3-2.5-.8-2.7-3.3-2,.3-1.8,1.8.8,3.3-1,3,1.3,2.7,2,1.8-.3,5,1.7,2.5,1.3,2.8.7,5.7-.5,7.7,1.3,4,2.2-.3,1.7,2.3,1.3,1.7,1.8.3,2-2,2.4-.4,1.7-1.7h1.7l.9,2,1.4,2.1h3.3l2.5-3.1.9-1.8-.6-2.4,1.8-.5,2.8-2.1-1.8-1.6,1.4-2.2-1-2-1.2-1.1,1.4-2v-2l1.3-1.4,1.3.4.9,1.4,2.3-.3,1.5-1.5-.3-3.4,1.5-1.5Zm-17.3,9.1v3.7l-.9,1.8-.7-2.2-1.6.7-1.5,1.5-1.7,2.5-1.8,1.8-1.2,1V502l-1.7.3-.7.8-.9-1.8-2.6-3.1,1.5-1.5,1.3.6h3.6l.4-1.3-.6-1.6v-2.7h1.6l1-1.9h1.8l1.1-1.1-1-2.3-2-1-.5.6H52.4l-1.2-1.3-1.4-1.4-.9-.9-.8-1.5v-1.6l1-.4,1.2,1.2.8.8,1,1.6,2.1.6.9-.4,2.1.7.5,1.8,1.5.8,1,1,1.1.8v2.4h0Z"
          transform="translate(-0.1 -0.1)"/>
    <polygon class="c"
             points="69.7 492.1 68.4 491 69.8 489 69.8 487 71.1 485.6 72.4 486 73.2 487.4 75.6 487.1 77 485.6 78.9 485.6 80.1 486.9 81.9 487.8 82.7 490 84.4 490 85.7 489.5 86.5 491.7 87.8 493.1 90.8 492.5 92.7 493.3 93 495.7 94.6 497.6 95.1 499.7 96.7 501.2 97.8 504.2 96.6 506.5 97.8 508.8 99.6 510.5 100.8 512.2 100.8 514.2 102.6 516 103.1 518.6 104.5 520.7 104.5 524.5 101.8 526.2 99.3 527 97.2 526.2 95.9 527.5 96.7 528.9 95.5 530 93.4 530 93.4 531.4 95.2 532.2 94.2 534.9 91.4 534.9 90.2 533.7 90.2 532.5 89 532.6 87.8 534.2 86.3 534.5 85.7 531.7 82.5 528.8 82.5 528.8 83.2 527.5 81.3 526.1 80.1 524.9 77.7 525.4 74.7 522.4 74.1 520.4 71.5 519.8 68.9 519 69.7 517.2 68.9 515.5 67.6 514.1 68.4 512.6 71.4 512.6 70.4 511.3 70 509.2 68.2 508 68.2 505.3 66.2 504.7 67.1 502.9 66.4 500.5 68.2 500 70.9 497.9 69.3 496.3 70.7 494.1 69.7 492.1"/>
    <polygon class="c"
             points="90.2 533.7 91.4 534.9 94.2 534.9 96.7 537.7 96.7 537.7 98.5 540 101.9 540.3 102.2 544.1 100.4 544.7 97.4 546.4 94.5 549.9 93.5 553.8 90.7 552.2 89 553.5 86.2 553.3 84.4 554.7 81.5 555.1 82.5 552.2 80 549.6 82.5 547.8 84.5 544.6 86.1 541.2 86.7 538.6 84.1 536.6 82.9 534.4 86.3 534.5 88 533.9 89 532.6 90.2 532.5 90.2 533.7"/>
    <polygon class="c"
             points="62.5 526.4 61 522.6 61 522.6 62.9 521.8 64.9 519.8 66.6 520 68.9 519 71.5 519.8 74.1 520.4 74.7 522.4 77.7 525.4 80.1 524.9 81.3 526.1 83.2 527.5 82.5 528.8 81.2 529.9 81.2 531.9 80 533.1 77 533.3 75.9 534.3 74.5 532.9 72.2 532.9 70.7 533.8 69.2 533.5 67 534.2 64.7 532.1 65.3 528.7 62.5 526.4"/>
    <polygon class="d"
             points="116.2 480.8 114.2 481.5 112.4 479.7 109.4 482.5 105.8 479.1 105 476.1 106 473.3 106 470.3 102.3 467.6 104.4 465.5 104.4 463.4 107.2 462.3 109.4 464.5 112.9 463.9 115.2 459.3 113.7 453.4 117.6 449.5 119 445.9 116.7 442.3 116.5 440.1 120.4 436.2 121.6 432.2 126.3 432.2 128.7 430.1 131.1 430.5 131.7 432.4 134.2 433.8 137.6 433.8 137.6 433.8 137.4 436.7 138.4 440.7 142.1 441.1 144.3 442.3 144.3 444.3 147.7 444.1 151.7 448 152.1 452.6 149.1 455.5 151.3 457.6 152.5 456.4 154.9 457.3 155.6 460.6 157.2 462.2 159.6 462.2 160 464.7 162.1 466.7 162.2 470.1 161 472.7 158.8 474.3 155.6 474.3 153 476.9 150.8 479.1 150.8 482.1 148 483.2 145 483.1 142.8 485.2 141.7 481.8 139.8 479.8 137.4 481.4 134 481.3 132.3 479.6 128.3 480.6 127.2 483.6 124.1 482.9 122.4 481.2 122.4 479.1 120.8 478.5 119.6 481.8 117.9 482.5 116.2 480.8"/>
    <polygon class="d"
             points="84.3 455.4 80.3 451.1 77.7 448.2 74.8 449.4 71.7 448.1 68 449.7 65.5 452.4 67.5 453.1 69.3 454.9 72.2 455.6 74.2 457.1 73.5 460.1 70.7 458.9 66.8 458.4 66.3 460.6 66.1 462.2 67.9 464 69.8 462.9 75.6 469 73.8 469.6 74.3 472.1 72 473.9 73.3 475.3 75.2 478.1 77 479 78.3 480.7 76.8 482.2 77 485.6 78.9 485.6 80.1 486.9 82.2 485.2 83.8 486.3 86.9 486.3 88.1 485.1 88.1 483.5 90 483.5 90.9 485.9 90.9 488.1 92.4 489.6 94.5 490.2 95.1 493.1 95.7 495.2 96.9 496.5 98.7 497.1 99.6 496.3 101.6 496.8 105.1 493.2 108.9 493.2 112.3 490.7 113.9 487.3 113.9 484.9 111.5 486.2 109.4 486.1 109.4 486.1 109.4 482.5 105.8 479.1 105 476.1 106 473.3 106 470.3 102.3 467.6 104.4 465.5 104.4 463.4 107.2 462.3 109.4 464.5 112.9 463.9 115.2 459.3 113.7 453.4 117.6 449.5 119 445.9 116.7 442.3 116.5 440.1 112.2 440.1 110.7 441.6 108.3 441.6 107.2 440 104.3 440 104.3 437.8 103 436.6 101.7 438.2 100.5 441.1 94.3 441.9 94.5 444.6 92.2 444.2 89.8 446.6 90.5 450.2 88 451.7 84.3 455.4"/>
    <path class="d"
          d="M143,485.4l-1.2-3.5-1.9-1.9-2.4,1.6h-3.4l-1.7-1.7-3.9,1-1.2,3,1,3.3,1.9,1.3-1,5.3.3,3.2,1.6,2.1h3.7l-.9,4.1-1.9,1.1-1.2,4.1,1.7,1.7-1.1,2.7-3.5-.3-.3,2.1h-1.2l-.3-1.2-1.9-.8-1.3,1.3,1.2,1.6v2l1.1,1.1v1.6l-5.4,3.8.5,1.3h2.3l1.8,1.3,3,.5,1.2,1.2,2.5.7s-.3,1.3,1.3,1.3l3.6-.2h5.7l2.8-.3,1.7-1.7-2.1-2.1-1.4-2.9-.3-3,2.5.3,1.7,1.8,1.8-1.7v-4.6l-.9-5.7.8-4.3-2-2-3.2-3-2.2-1.3,2.2-2.2,1-4.3-2.4-2.4-1.1-3.2,2.7-1.8Z"
          transform="translate(-0.1 -0.1)"/>
    <polygon class="b"
             points="115.9 376 114.8 370.2 111.1 368.8 108.4 368.8 106 368 105 369 104.5 371.1 103.6 372 102.2 370.6 100.3 370.6 98.8 371.2 99.3 372.7 98.8 374.2 98.8 374.2 97.1 374.2 95.3 376.1 96.2 377.5 97.9 378.1 99.2 379.1 99.2 381.9 101.1 382.4 101.6 384 103.3 384.8 103.8 388.5 105.7 391.6 106.3 395.4 108.1 395.7 109.4 397.1 111.4 395.5 113.6 395.5 115.1 394 114.2 392.2 117.5 390.3 118.4 388 121.1 387.1 119.9 383.4 121.1 382.2 118.1 380.2 115.9 376"/>
    <polygon class="b"
             points="129.6 413 131.4 413 132 410.3 130.2 408.5 130.6 406.1 129.6 404.7 130.2 403 132.4 402.2 135.1 399.5 138.6 397.1 137.9 392.6 135.7 390.4 133.6 391.8 132.5 390.1 133.3 388.4 132.5 387.1 132.5 387.1 130.1 387.2 129.3 388.7 126.8 388.7 125.8 390.6 123.9 390.6 122.3 388.2 121.1 387.1 118.4 388 117.5 390.3 114.2 392.2 115.1 394 113.6 395.5 111.4 395.5 109.4 397.1 109.4 399.9 111.6 400.2 113.9 401.7 116.8 402.2 118.1 404.8 121.1 405.8 120.5 408.8 122.5 410.8 125.1 411 127.7 414.6 129.6 413"/>
    <path class="b"
          d="M137.5,379l-1.3,2.3v2l-1.7,1.3-1.8,2.6-2.4.2-.8,1.5s-2.5-.5-2.5,0a6.8,6.8,0,0,1-.9,1.9h-1.9l-1.7-2.4-1.2-1.2-1.2-3.7,1.2-1.6-3-1.6-2.2-4.2-1.2-5.7,2.3-3.2,1.5.6,1.4-1.4,2.8-.7,1.7.9,1.9,1.9,2.2-.4v-1.9l.9-.9,2.4,1.6,2.5-1.7,1.5,2.4,2.1.4v1.8l-.7,2,.6,2-.8,2.8.3,2.3Z"
          transform="translate(-0.1 -0.1)"/>
    <polygon class="b"
             points="161 380.1 161.4 382.3 163.2 382.8 165.3 386.2 165.3 389.3 166.9 390.4 168 391.5 168 393.1 168.6 394.6 167 396.2 164.9 396.7 163.9 397.7 162.4 399.3 160.5 399.3 160.5 400.6 159 402.1 157.1 403.4 155.5 402.6 153.5 400.6 152 400.7 150.1 398.8 148.2 401 145.2 400.5 144.1 397.8 141 396.9 138.6 397.1 138.6 397.1 137.9 392.6 135.7 390.4 133.6 391.8 132.5 390.1 133.3 388.4 132.5 387.1 134.3 384.5 136.1 383.1 136.1 381.1 137.4 378.9 139.9 378.5 140.3 376.7 142.4 376.3 143 376.9 146.1 376.8 147 375.9 149.6 376.4 151.1 376.9 152.8 376.5 153.6 375.8 155.5 376 157.5 376 159.1 377.3 158.4 379.2 161 380.1"/>
    <polygon class="b"
             points="129.6 404.7 130.6 406.1 130.2 408.5 132 410.3 131.4 413 129.6 413 127.7 414.6 129.1 416 128.3 418.6 130.3 420.6 133.4 421.8 134.5 424 136.4 425.9 137.5 429.2 137.5 429.2 139.8 428.1 141.4 428 143.1 426.4 146 424.8 149.3 422.8 150.2 421.1 153 421.1 153.4 415.8 152 413.4 152.6 409 152 406.4 153.6 404.8 155.5 402.6 153.5 400.6 152 400.7 150.1 398.8 148.2 401 145.2 400.5 144.1 397.8 141 396.9 138.6 397.1 135.1 399.5 132.4 402.2 130.2 403 129.6 404.7"/>
    <polygon class="e"
             points="178 417.6 176 415.6 172.6 415.6 171.7 416.5 168.3 413.5 168.3 410.3 165.7 407.6 163.7 407.6 160.7 406.4 159.2 404.8 157.3 405.5 157.1 403.4 159 402.1 160.5 400.6 160.5 399.3 162.4 399.3 164.9 396.7 167 396.2 168.6 394.6 168.6 394.6 170.4 396.4 173.5 396.4 174.2 398.8 175.9 400.4 175.9 403.6 178 405.7 178.8 408.4 181.5 409.2 182.8 407.1 186.8 407 187.6 406.2 190.4 406 190 408.1 191.2 409.3 192.9 409.3 193.9 411.3 192.2 413.7 193 415.5 191.6 416.9 191.2 419.3 186.8 419.9 185.2 418.2 182.6 420.1 180.2 419.8 178 417.6"/>
    <polygon class="e"
             points="171.9 438.4 168.4 436.5 164.6 434.9 162.3 433.4 161.5 430.5 157.9 430.6 155.4 428.3 153.5 427.6 152.1 426.1 151.8 424.1 149.3 422.8 150.2 421.1 153 421.1 153.4 415.8 152 413.4 152.6 409 152 406.4 155.5 402.6 155.5 402.6 157.1 403.4 157.3 405.5 159.2 404.8 160.7 406.4 163.7 407.6 165.7 407.6 168.3 410.3 168.3 413.5 171.7 416.5 172.6 415.6 176 415.6 180.2 419.8 182.6 420.1 184.2 422.5 184.2 426.7 182.6 428.3 182.6 430.5 183.9 431.9 183.2 433.7 181.9 434.3 180.4 437.2 178.4 440.1 176.4 437.7 174 438.4 171.9 438.4"/>
    <polygon class="e"
             points="159.6 462.2 157.2 462.2 155.6 460.6 154.9 457.3 152.5 456.4 151.3 457.6 149.1 455.5 152.1 452.6 151.7 448 147.7 444.1 144.3 444.3 144.3 442.3 142.1 441.1 138.4 440.7 137.4 436.7 137.6 433.8 138.8 432.6 137.5 429.2 139.8 428.1 141.4 428 143.1 426.4 146 424.8 149.3 422.8 151.8 424.1 152.1 426.1 153.5 427.6 155.4 428.3 157.9 430.6 161.5 430.5 162.3 433.4 164.6 434.9 168.4 436.5 171.9 438.4 174 438.4 176.4 437.7 178.4 440.1 178.4 440.1 179.6 442.7 181.8 444.9 187.6 444.9 189.6 446.8 191.1 449.8 191.1 452.8 194.5 453.8 195.5 458.3 198.6 461.4 197.9 465 200.3 467.4 201.5 469.2 201.3 471.1 197.3 470.3 195.2 472.4 191.3 473.7 188 471.9 184.5 471.9 182.8 474.4 179.3 474.4 175.5 474.4 174.7 476.2 172.5 478.4 172.2 481.6 168.1 480.8 165.7 478.4 165.7 475.1 166.8 471.8 165 470.1 162.2 470.1 162.1 466.7 160 464.7 159.6 462.2"/>
    <polygon class="e"
             points="189.6 446.8 187.6 444.9 181.8 444.9 179.6 442.7 178.4 440.1 180.4 437.2 181.9 434.3 183.2 433.7 183.9 431.9 182.6 430.5 182.6 428.3 184.2 426.7 184.2 422.5 182.6 420.1 185.2 418.2 186.8 419.9 191.2 419.3 191.6 416.9 193 415.5 193 415.5 197.4 418.5 197.4 421.3 200.8 420.5 203.3 421.6 205.9 424.2 208.3 426.3 210.8 425.3 212.2 426.6 213.1 430.5 215.5 432.9 216.4 435.1 214.1 438.6 211 440 209.5 441.5 207 438 203.5 436.6 201.8 438.3 198.8 434.9 196.7 437.1 193.8 436.3 191.6 438.5 191.6 442.3 193.1 443.8 192.5 446.4 189.6 446.8"/>
    <polygon class="e"
             points="200.3 467.4 201.5 469.2 207.4 469.2 209.1 465.7 212.3 463.4 214.1 463.9 215.2 461.7 219.7 460.9 222 455.6 225.8 453.4 228.7 450.6 229.8 445.9 229.8 445.9 228.6 443.2 229.4 441 225.3 437.5 222.6 437.5 220.7 439.4 216.4 435.1 214.1 438.6 211 440 209.5 441.5 207 438 203.5 436.6 201.8 438.3 198.8 434.9 196.7 437.1 193.8 436.3 191.6 438.5 191.6 442.3 193.1 443.8 192.5 446.4 189.6 446.8 191.1 449.8 191.1 452.8 194.5 453.8 195.5 458.3 198.6 461.4 197.9 465 200.3 467.4"/>
    <polygon class="f"
             points="346.2 490.2 342.5 490.9 338 490.9 333.7 488.6 331.9 488.6 330 490.6 326.7 491.2 323.5 489.6 320.7 489.6 316.8 488.4 311.2 488.6 312 486.2 314.5 483.7 313.1 480.4 309.8 480.4 309.4 478.9 307.3 478.8 305.4 476.9 305.9 474.6 308.1 474.6 309.8 473 308.8 469.8 310.4 468.2 313.3 468.2 314.9 465.7 314.4 461.5 314.3 457.8 314.3 457.8 318.6 454.8 321.2 456 323.4 456 325.9 457.1 327.7 456.4 329.9 460.3 333.9 457.3 337.5 457.3 338.8 459 336.9 462.5 339.7 466.6 341.8 467.2 341.8 471 344.4 471.5 346.3 473.4 349.2 473.4 350.2 475.5 352.5 475.9 351.9 479 358.5 483.1 359 488.1 357 490.9 352.8 490.9 349.2 491.9 346.2 490.2"/>
    <polygon class="e"
             points="243.3 442.2 243.3 443.7 244.4 444.8 243.1 446.2 241 448.2 239.1 448.2 238.5 449.9 237.3 451.8 235.3 452.6 236.1 454.1 236 458.4 237.2 459.7 236.3 464.3 238.2 465.4 240.4 467.7 241.8 471.4 241.8 475 242.9 477.3 242 479.6 242 482.8 241.3 484.4 243.2 485.5 245 483.7 247.8 483.7 248.8 485.6 247.8 488.1 245.1 489.2 245.7 490.5 247.5 490.9 246.9 494.2 245.9 495.2 246.4 497.8 248 497.8 248.4 499.3 250.4 501.2 252.4 500.3 253.8 498.8 255.6 499.7 256.2 501.4 258 502.6 260.1 503.2 262.2 501.6 263.7 498.3 264.7 496.6 267.3 495.4 267.7 492.9 270 488.8 271.8 488.8 271.8 485.9 274 482.9 274 481.1 277.4 477.7 280 476.8 280 475.6 282.8 475.3 284 476.9 285.9 476.9 285.9 473.7 284.7 470.1 280.7 468.8 278.9 470 274.8 469.6 272.6 466.2 272.1 461.7 270.5 460.1 269.9 456.9 273.5 454.2 276 455 278.7 456.3 280.6 458.2 280.6 460.5 284.1 461.7 286.3 459.5 290.1 458.6 290.1 456.6 292.1 452.9 292.8 450.3 292.2 447.5 292.2 447.5 290.1 449.6 288.1 446.8 285.7 446.8 281.8 444 279.7 441 277.8 441.8 275.6 441.1 274.3 436.6 271.6 436.1 270.1 433 266.8 433 263.3 430.3 263.3 428.3 261.2 427.5 259.5 429.3 253 431.1 251.9 432.2 253.3 434.3 253.3 436.6 249.9 439.2 247.4 439.2 245.4 440.1 244.5 439.1 242.7 440 243.3 442.2"/>
    <polygon class="a"
             points="198 291.3 200.2 292.6 200.3 294.1 202.7 296.7 200.1 301.8 200.5 303.4 199.2 304.7 200.1 309.3 202 310.5 202 312.6 204.6 313.9 205.3 315.6 206.3 316.2 207.9 317.8 209.6 317.8 211 319.2 211.6 321.1 214.9 321.2 217.4 321.9 218.6 323 220.7 323.6 221.5 325.6 223.5 327.6 224.8 328.6 224.8 330.2 226.2 330.7 229 330.7 229 329.6 230.3 330.1 232.2 330.1 232.2 332.2 233.3 333.4 234.3 333.4 234.3 334.7 236.3 335.7 237.5 337 239.3 335.2 239.8 333.7 241.6 334.6 242.8 336.7 241.4 338.1 243.3 339.2 243.3 340.2 244.8 340.2 246.6 341 245.8 341.8 247.9 344.4 244.2 348.1 242 350.4 238.8 349 237 350.6 240.7 354.4 238.4 355.5 238.4 358.6 237.3 359.7 233.4 356.3 231.3 359.5 227.7 358.6 226.2 360.1 223.9 356.9 220.5 355 217.7 353.6 216.6 350.4 213.3 347.1 209 346.3 206.8 341.7 203.4 343.3 199.8 341.7 195.7 342.7 192 344.3 188.1 340.3 188.1 336.8 188.1 333.8 184.9 330.6 183.3 332.2 179.2 329.4 177.4 327.6 174.3 327.9 172.3 328.3 172.3 328.3 172.3 324.9 173.1 322.1 170.8 321.4 168.1 321.9 164.6 320.3 165.8 319.1 166.2 316.6 164.1 313.2 161.7 312.3 163.5 308.8 165.3 307 168.4 307.5 169.4 306 171.6 305.4 173.8 302.6 174.7 300.4 176.2 297.6 179.9 295.5 182.4 291.9 184.3 292.9 187.3 291.2 190.1 290.3 192.8 290.8 195.3 291.9 198 291.3"/>
    <polygon class="b"
             points="158.9 351.7 158.4 349.6 159.6 348.2 161.5 346.4 164.7 344.3 163.6 341.7 163.6 340 165.4 338.2 164.6 335.3 165.6 333.1 168 333.1 169 329.7 169 329.7 172.3 328.3 174.3 327.9 177.4 327.6 179.2 329.4 183.3 332.2 184.9 330.6 188.1 333.8 188.1 340.3 192 344.3 192 347.2 187.6 347.4 186.6 349.7 184.4 349.7 181.2 353.1 179.2 353.1 178.3 355.4 174.9 354.7 173.3 353.1 169.5 353.1 167.2 355.4 164.4 355.4 163 356.8 161 354.8 159.1 353.4 158.9 351.7"/>
    <polygon class="b"
             points="184.9 359.1 187.2 356.7 188.5 357 189.5 360.1 193.2 362.4 195.4 362.4 195.4 366.2 198.6 367.8 198.6 370.9 202.5 371.8 207.7 370.5 209.6 368.6 212.5 368.6 213.7 371.3 215.5 373.2 218.6 373.2 219.8 374.3 222.4 371.7 226.4 370.3 228.1 372 230 369.9 234.7 369.9 235.3 362 235.3 362 237.3 359.7 233.4 356.3 231.3 359.5 227.7 358.6 226.2 360.1 223.9 356.9 217.7 353.6 216.6 350.4 213.3 347.1 209 346.3 206.8 341.7 203.4 343.3 199.8 341.7 195.7 342.7 192 344.3 192 347.2 187.6 347.4 186.6 349.7 184.4 349.7 181.2 353.1 179.2 353.1 178.3 355.4 180.5 357.6 183.4 357.6 184.9 359.1"/>
    <polygon class="b"
             points="176.8 375.9 178.6 371.5 174.2 367.1 171.7 364.6 167.5 363.1 167.5 360.8 168.9 358.2 167.2 355.4 167.2 355.4 169.5 353.1 173.3 353.1 174.9 354.7 178.3 355.4 180.5 357.6 183.4 357.6 184.9 359.1 187.2 356.7 188.5 357 189.5 360.1 193.2 362.4 195.4 362.4 195.4 366.2 198.6 367.8 198.6 370.9 195.2 370.9 193.9 374.3 190.6 374.3 188.2 371.9 186.3 373.8 185.4 377.3 183.3 379.4 179 380 175.4 381.1 176.8 375.9"/>
    <polygon class="b"
             points="158 366.9 156.4 366.3 155.6 364.7 155.6 362.5 154.1 361.9 153.2 359.7 155.1 358.3 155 356.1 156.4 354.7 157 352.6 158.9 351.7 159.1 353.4 161 354.8 163 356.8 163 356.8 164.4 355.4 167.2 355.4 168.9 358.2 167.5 360.8 167.5 363.1 171.7 364.6 174.2 367.1 178.6 371.5 176.8 375.9 175.4 381.1 172 381.7 170 383.8 167.2 384.3 165.3 386.2 163.2 382.8 161.4 382.3 161 380.1 158.4 379.2 159.1 377.3 157.5 376 157.4 373.6 158.5 373.1 159.1 371.4 159.3 368.2 158 366.9"/>
    <polygon class="e"
             points="225 383.8 222.9 385.9 219.4 383.8 216.6 384.3 214.6 386.3 212.2 389.8 207.7 387 205.5 389.1 202.1 389 202.4 392.7 200.6 394.4 202.3 397.4 197.4 400.1 197.4 404.2 194.4 406.9 192.9 409.3 191.2 409.3 190 408.1 190.4 406 187.6 406.2 186.8 407 182.8 407.1 181.5 409.2 178.8 408.4 178 405.7 175.9 403.6 175.9 400.4 174.2 398.8 173.5 396.4 170.4 396.4 168.6 394.6 168 393.1 168 391.5 165.3 389.3 165.3 389.3 165.3 386.2 167.2 384.3 170 383.8 172 381.7 175.4 381.1 179 380 183.3 379.4 185.4 377.3 186.3 373.8 188.2 371.9 190.6 374.3 193.9 374.3 195.2 370.9 198.6 370.9 202.5 371.8 207.7 370.5 209.6 368.6 212.5 368.6 213.7 371.3 215.5 373.2 218.6 373.2 219.8 374.3 223.3 376.9 227.6 381.2 225 383.8"/>
    <polygon class="e"
             points="197.4 400.1 202.3 397.4 205.2 398.8 211.3 398.8 211.8 401.9 213.7 403.8 212.8 406.4 214.7 409.9 210.6 410.9 206.8 413.1 206.8 417.2 203.6 418.4 200.6 417.2 197.4 418.5 193 415.5 192.2 413.7 193.9 411.3 193.9 411.3 192.9 409.3 194.4 406.9 197.4 404.2 197.4 400.1"/>
    <polygon class="e"
             points="253.5 348.9 255 349.6 255.3 352.2 253.3 354.2 253.3 357.6 250.1 358.3 250.1 360.5 247.9 362.7 247.9 365.2 249.6 366.9 249.6 369.4 250.3 372.1 249.3 374.4 250.5 375.6 252.4 373.2 253.6 369.9 256.5 369.1 259.6 370.6 261.5 372.5 264.1 370 265.5 371.4 266.3 373.2 268.8 372.9 270.3 371.4 273 371.4 274.6 373 277.5 374.4 279.8 376.7 281.6 378.2 281.2 381.1 278.4 383.5 275.8 384.5 272.8 387.5 272.8 390.2 274.5 391.9 273.6 394.6 273.6 397.4 269.9 399.7 267 399.7 266.9 396.3 263.5 396.5 259.6 392.7 256.5 394.9 254.6 398.1 253.7 401 251.6 403.1 248.7 403.1 247.1 401.5 244.1 404.7 244.1 409.5 241.3 412.3 239.2 414.3 237.8 418.1 235 414.9 234.1 410.8 234.1 408.2 233.2 405.7 233.2 400.4 230.5 398.8 229.3 394.9 225.6 394.1 222.9 392.5 221.7 394.6 219.8 392.7 216.7 394.4 214.1 392.7 212.2 389.8 212.2 389.8 214.6 386.3 216.6 384.3 219.4 383.8 222.9 385.9 227.6 381.2 223.3 376.9 219.8 374.3 222.4 371.7 226.4 370.3 228.1 372 230 369.9 234.7 369.9 235.3 362 237.3 359.7 238.4 358.6 238.4 355.5 240.7 354.4 237 350.6 238.8 349 242 350.4 247.9 344.4 249.7 342.9 250.9 343.3 254.1 347.1 253.5 348.9"/>
    <polygon class="e"
             points="202.3 397.4 200.6 394.4 202.4 392.7 202.1 389 205.5 389.1 205.5 389.1 207.7 387 212.2 389.8 214.1 392.7 216.7 394.4 219.8 392.7 221.7 394.6 222.9 392.5 225.6 394.1 229.3 394.9 230.5 398.8 233.2 400.4 233.2 405.7 234.1 408.2 231.2 409.8 229.2 407.7 225.5 407.7 224 406.2 220.1 408.5 214.7 409.9 212.8 406.4 213.7 403.8 211.8 401.9 211.3 398.8 205.2 398.8 202.3 397.4"/>
    <polygon class="e"
             points="215.5 432.9 213.1 430.5 212.2 426.6 210.8 425.3 208.3 426.3 203.3 421.6 200.8 420.5 197.4 421.3 197.4 418.5 200.6 417.2 203.6 418.4 206.8 417.2 206.8 413.1 210.6 410.9 214.7 409.9 220.1 408.5 224 406.2 225.5 407.7 229.2 407.7 231.2 409.8 234.1 408.2 234.1 410.8 235 414.9 237.8 418.1 241.2 418.5 242.8 420.7 245.7 422 246.8 423.6 248.8 423.7 249.1 426.7 251.4 428.5 249.2 429.8 249.3 431.2 251.9 432.2 251.9 432.2 253.3 434.3 253.3 436.6 249.9 439.2 247.4 439.2 245.4 440.1 244.5 439.1 242.7 440 243.3 442.2 243.3 443.7 244.4 444.8 241 448.2 239.1 448.2 237.3 451.8 235.3 452.6 233.3 450.7 235.3 448.7 232.5 445.9 229.8 445.9 228.6 443.2 229.4 441 225.3 437.5 222.6 437.5 220.7 439.4 216.4 435.1 215.5 432.9"/>
    <polygon class="e"
             points="251.4 428.5 249.1 426.7 248.8 423.7 246.8 423.6 245.7 422 242.8 420.7 241.2 418.5 237.8 418.1 239.2 414.3 239.2 414.3 244.1 409.5 244.1 404.7 247.1 401.5 248.7 403.1 251.6 403.1 253.7 401 254.6 398.1 256.5 394.9 259.6 392.7 263.5 396.5 266.9 396.3 267 399.7 269.9 399.7 269.2 403.3 269.1 407.6 267 411.2 266.4 415.3 264.5 419.6 259.1 422.3 259.1 424.2 261.2 427.5 259.5 429.3 253 431.1 251.9 432.2 249.3 431.2 249.2 429.8 251.4 428.5"/>
    <polygon class="a"
             points="318.6 288.6 301.3 288.7 299.4 290.6 298.5 293.1 297.3 294.2 297.3 295.4 296.1 296.6 294.7 298.1 295.4 299.5 297.3 301.4 298.1 303 297 305.2 297.5 307.5 298.8 308.7 297.3 311.3 295.8 312.8 294.8 311.7 293.3 311.7 291.2 310.1 289 309.6 287.3 308.5 285 309.3 283.1 310.3 282.6 307.7 279.9 305.1 277.5 303.6 274.7 303.1 273.3 301.6 271.3 301 268.9 299.2 266.8 299.2 267.3 301.5 267.3 303.5 269 306 270.8 307.7 270.1 310.1 270.1 312.5 267.8 313.9 267.2 316.4 268.4 317.6 268.8 320.2 268.3 321.8 266 321.2 264.1 321.7 263.5 323.4 262.7 324.1 263 326 261 327 261.3 329.9 262.9 330.6 264.6 331.2 266 332.6 267.5 330.5 268.6 330.9 269.5 328.7 271.7 328.3 273.2 328.3 274.3 329.4 275.9 328.6 276.1 330.8 277.5 332.2 275.4 334.3 274 334.9 271.8 337.1 269.2 338.7 268.9 340.2 266.9 341.5 265.6 342.8 267.5 344.6 266.1 347.1 264.4 348.3 263 350 261.3 349.6 261 348.3 258.3 348.3 256.9 347.9 257.1 349.1 255 349.6 255.3 352.2 253.3 354.2 253.3 357.6 250.1 358.3 250.1 360.5 247.9 362.7 247.9 365.2 249.6 366.9 249.6 369.4 250.3 372.1 249.3 374.4 250.5 375.6 252.4 373.2 253.6 369.9 256.5 369.1 259.6 370.6 261.5 372.5 264.1 370 265.5 371.4 266.3 373.2 268.8 372.9 270.3 371.4 273 371.4 275.6 370.4 275.6 368.4 273.9 366.7 275.4 363.6 278.8 365.5 280 364.3 281.2 365.5 282.8 363.9 284.9 364.6 285.8 366 285.4 368.1 287.2 370.3 289.3 369.5 292.9 371.1 295.3 373.5 297.9 372.1 300.9 373.3 302.6 371.6 304.3 372.1 305.5 373.3 307.2 372.8 308.2 370.6 309.9 370.6 313.8 373.3 317.6 375.3 321.8 376.9 327.6 377.8 328.4 375.4 330 373.8 330.6 370.9 334.7 366.8 334.7 364.5 336.1 361.9 335.4 359 337.7 354.8 341.1 352.6 341.4 349.6 345.4 347.1 344.8 343.5 346.3 340.6 349.7 337.2 352.3 334.6 354.4 335.4 354.4 338 357.3 337.6 360.4 334.5 363.6 332.9 365.3 330.9 368.5 330.4 372.8 330.6 372.8 326.9 378.2 323.9 383.5 322.7 389.2 322.7 390.3 319.1 393.5 319.1 396.5 316.1 400.5 314.1 397.9 311.5 401 310.2 401 308.1 397.7 306.4 398.2 303.3 399.5 302.6 400.3 300.8 398.3 299.7 398.3 299.7 396.4 299.7 393.1 302.6 390.2 302.7 388.8 305.9 384.4 305.1 383.3 307.1 381.3 309 379.4 310.1 375.7 311.4 372.5 312.1 368.8 310.2 366.8 310.6 364.5 308.7 360.1 307 355.6 304.1 352.3 302.7 346.8 300.6 344.2 298 340.9 297.6 335.7 294.2 333.1 291.6 329 289.8 325 286.4 321.3 286.8 318.6 288.6"/>
    <polygon class="e"
             points="291.3 431.8 292.1 428.6 293.8 425.8 296.1 425.8 298.1 428.8 299.3 427.5 301.1 425.7 299.8 424.4 299.7 422.8 302.7 420.8 305.6 421.4 307.6 419.7 309.7 417.6 307.9 415.8 307.9 414.6 309.6 412.9 310.7 409.1 308.6 405.8 308.6 401.5 311.3 399.1 314.2 399.1 316.4 396.9 318.9 393.1 322.3 390.1 324.2 385.5 324.2 382.1 327.6 380.4 327.6 377.8 321.8 376.9 317.6 375.3 313.8 373.3 309.9 370.6 308.2 370.6 307.2 372.8 305.5 373.3 304.3 372.1 302.6 371.6 300.9 373.3 297.9 372.1 295.3 373.5 292.9 371.1 289.3 369.5 287.2 370.3 285.4 368.1 285.8 366 284.9 364.6 282.8 363.9 281.2 365.5 280 364.3 278.8 365.5 275.4 363.6 273.9 366.7 275.6 368.4 275.6 370.4 273 371.4 274.6 373 277.5 374.4 279.8 376.7 281.6 378.2 281.2 381.1 278.4 383.5 275.8 384.5 272.8 387.5 272.8 390.2 274.5 391.9 273.6 394.6 273.6 397.4 273.6 397.4 269.9 399.7 269.2 403.3 269.1 407.6 267 411.2 266.4 415.3 264.5 419.6 259.1 422.3 259.1 424.2 261.2 427.5 263.3 428.3 263.3 430.3 266.8 433 270.1 433 271.6 436.1 274.3 436.6 275.6 441.1 277.8 441.8 279.7 441 281.9 438.6 283.2 437.3 283.2 434.4 284.3 432.1 285.3 433.1 288.6 433.1 291.3 431.8"/>
    <polygon class="h"
             points="612.6 543.4 616.9 539 618.1 537.8 619.6 536.3 621.9 537.8 621.4 540 624.6 541.5 626.4 543.3 630.6 544.5 632.4 546.4 634.6 547.5 636.9 549.9 642.3 548.8 644.3 550.9 646.8 553 649.4 553 649.4 555.4 651.3 558.4 654.1 558.4 656.1 558.4 656.9 561.4 660.7 559.3 663.4 559.3 663.4 554.4 667.3 550.5 671.8 545.1 674.1 539.4 680 533.5 686.7 525.4 687.7 513.5 690.1 505.6 686.4 504.5 684.6 495.5 682.9 488.1 684.2 485.8 685.9 484 683.1 482 680.3 481.1 679.3 476.6 684.6 472.8 687.2 472.8 687.2 469.4 689.7 468.3 693.3 469.5 697.1 468.1 697.1 464.9 699.7 463 701.1 464.5 705.3 464.5 707.8 462.8 709.4 464.3 714.6 465.4 716.7 463.3 718.9 464.5 722.2 461.2 724.8 461.2 724.8 454.6 727.8 453.1 729.7 449.3 732.8 450 734.3 451.5 730.7 454.9 730.7 459.4 733.8 461 735.1 465 737.1 467.4 738.3 471.6 741.2 474.8 743.8 473.8 747.5 475.6 750.1 478.1 751.1 480.8 749.6 485.9 745.8 487 742.7 490.1 740.3 494 738.6 497.9 735.8 500.6 733.7 504.8 734.9 508.9 737.6 509.6 737.6 511.6 739.6 513.6 738.4 517.8 732.1 524 728.4 525.7 726.2 527.9 723.3 529 722.6 533.8 720.3 536 717.8 537 716.2 542.6 713.6 542.6 710.3 542.1 705.9 546.5 703.7 547.6 701.8 546.9 699.9 546.9 698.1 548.8 698.1 551.9 699.4 553.5 697.3 554.4 697.3 560.3 700.2 559.8 702.2 561.8 696.8 567.3 697.5 570.4 691.2 570.4 691.2 570.4 685.3 569.6 683 568.1 675.3 569.1 670.6 569.1 666.7 573.1 662.3 574.1 658.2 575.2 652.2 574.7 648.1 573 645.5 570.4 643.1 565.3 640 562.2 635.7 560.6 631.5 560.6 626.8 561.8 623.5 558.6 617 558.6 613.2 555.7 611.3 557.6 611.1 554.5 609.4 552.9 608.8 550.1 610.6 548.3 610.6 545.3 612.6 543.4"/>
    <polygon class="h"
             points="780.4 455.6 778.4 454.8 778.3 452 776.9 450.7 775 450.1 772.9 452.2 771.9 454.7 768.5 453.7 767.4 451.7 769.4 449.2 768.3 447.2 766 448 763.1 447.2 761.1 445.2 761 443.2 758.3 442.5 758.3 439.6 755.8 438.7 753.2 435.3 749.6 433.9 748.8 430.1 747.1 428.4 745.1 430 743 430 741.4 428.4 738.7 428.2 735.9 431.1 737.1 432.3 735.8 435.1 737.3 436.6 736 440.1 740.8 444.9 743.5 443.8 743.5 445.8 744.7 447 744.1 450.3 741.4 451.9 739.9 454.8 736.2 453.8 733.7 455.1 730.7 454.9 730.7 459.4 733.8 461 735.1 465 737.1 467.4 738.3 471.6 741.2 474.8 743.8 473.8 747.5 475.6 750.1 478.1 751.1 480.8 749.6 485.9 745.8 487 742.7 490.1 740.3 494 738.6 497.9 735.8 500.6 733.7 504.8 734.9 508.9 737.6 509.6 737.6 511.6 739.6 513.6 738.4 517.8 734.6 521.5 732.1 524 728.4 525.7 726.2 527.9 723.3 529 722.6 533.8 720.3 536 717.8 537 716.9 540.1 716.2 542.6 713.6 542.6 710.3 542.1 705.9 546.5 703.7 547.6 701.8 546.9 699.9 546.9 698.1 548.8 698.1 551.9 699.4 553.5 697.3 554.4 697.3 560.3 700.2 559.8 702.2 561.8 696.8 567.3 697.5 570.4 699.8 572.7 701.2 575.2 705.7 576.7 710.7 576.1 717.5 576.1 722.3 574.6 727.7 574.6 729.8 572.5 733.8 568.4 739.2 565.9 743 563.2 745.9 560.3 747.3 555.4 753.3 549.4 757.5 547.6 760.7 548.7 764.2 550.6 768.8 547.9 772.2 545.9 776.7 546.7 782.8 547.2 788.3 545.2 791.6 542 793.8 536.7 797.3 535.7 797.3 531.1 795.8 529.6 793.3 524.7 795.2 520.1 795.2 515.6 795.2 515.6 796.2 508.4 797.5 505.6 796.2 500.2 793.8 497.9 791.8 495.8 789.2 497.9 787.3 495.6 788.7 492.2 790.5 486.7 793.1 484.1 798.3 481.1 795.9 476.9 794.8 474.7 792 474.7 791.2 471.2 789.8 469 792.3 467.5 792.3 466.3 790.9 466.3 788.7 463.9 786.8 463.7 787.3 459.4 786.2 457.5 785 454.2 782.3 452.9 780.4 455.6"/>
    <polygon class="g"
             points="698.1 436.9 696.2 434.3 696.2 431.4 694 429.2 691.9 430.2 691.4 432.9 685.9 435 683.3 435 682.2 438.1 680.6 440.6 677 440.9 673 436.8 672.6 428.5 673.1 423.5 673.1 418.8 673.7 414.7 673.7 410.6 670.8 409.4 668.7 408.6 668.4 406.7 667.4 404.4 665.5 402.5 665.5 400.3 666.8 399 667.2 395.9 665.4 394.1 663 394.1 660.4 392.8 660.4 390.4 661.4 389.4 660.3 388.2 659.3 384.6 657.3 380.8 654.8 379.1 652 379.9 649.2 380.1 649.2 376.9 651.5 376.3 651.5 374.1 649.1 371.8 648.3 373.6 646.8 375.1 644.9 374.6 642.7 376.8 640.4 377.6 639.1 380.6 639.1 383.7 640.3 387 639.3 389.7 639.3 392.1 642.2 395 644 396.8 643.2 399.2 642 401.2 644.1 403.4 642.1 405.4 640.6 406.5 640.6 410.9 638.8 412 638.2 415 635.3 416.1 636 420.1 634.8 421.4 634.3 425.1 635 428.4 636.7 429.1 639.5 431.9 640.6 430.8 643.3 431.8 643.3 434.7 644.2 437.2 642.3 437 641.1 439.2 640.1 441.1 640.7 442.7 643.3 442.7 644.6 445.4 645.5 447.8 644 449.3 642.4 451.8 642.4 454 641.6 455.9 639.1 455.9 637.1 453.8 634.3 453.8 633.2 451.9 630.6 450.7 630 449 627.8 448.5 624.9 450.3 624.2 453.6 625.7 457 623.4 460.3 619.8 464 617.4 467.5 616.5 471.1 615.2 474.2 617.5 476.5 615.3 478.1 612 475.9 610.4 472.1 607.7 469.4 605.1 470.7 604 474.3 599.8 475.8 596.5 475.2 593 476.1 592.9 481.1 590.9 483 590.9 487.7 593.3 490 594.9 493.8 594.9 496 592.3 497.3 591.1 500.4 588.7 500.4 588 503.5 586.9 506.2 588.7 508.8 588.8 511.5 587.5 512.4 587.5 516.3 588.1 518.5 587 520.6 587.4 523.3 582.5 523.5 582.5 525.6 580.5 525.2 579.7 527.3 582.8 529.3 587.6 534.1 589.8 535.4 592.8 535.4 595.3 537.3 599.1 537.8 602.2 540.8 604.3 541.8 607.9 541.8 609.4 540.3 612.6 543.4 619.6 536.3 622.3 538.1 621.4 540 624.6 541.5 626.4 543.3 630.6 544.5 632.4 546.4 634.6 547.5 636.9 549.9 642.3 548.8 646.8 553 649.4 553 649.4 555.4 651.3 558.4 656.1 558.4 656.9 561.4 660.7 559.3 663.4 559.3 663.4 554.4 667.3 550.5 671.8 545.1 674.1 539.4 680 533.5 686.7 525.4 687.7 513.5 690.1 505.6 686.4 504.5 682.9 488.1 684.2 485.8 685.9 484 683.1 482 680.3 481.1 679.3 476.6 684.6 472.8 687.2 472.8 687.2 469.4 689.7 468.3 693.3 469.5 697.1 468.1 697.1 464.9 699.7 463 701.1 464.5 705.3 464.5 707.8 462.8 709.4 464.3 714.6 465.4 716.7 463.3 718.9 464.5 722.2 461.2 724.8 461.2 724.8 454.6 727.8 453.1 729.7 449.3 732.8 450 734.3 451.5 730.7 454.9 733.7 455.1 736.2 453.8 739.9 454.8 741.4 451.9 744.1 450.3 744.7 447 743.5 445.8 743.5 443.8 740.8 444.9 736 440.1 737.3 436.6 735.8 435.1 737.1 432.3 735.9 431.1 738.7 428.2 741.4 428.4 743 430 745.1 430 747.1 428.4 747.7 426.6 742.9 421.9 742.9 421.9 741.6 418.1 739.5 417.9 739.5 415.5 737.3 413.1 735.4 411.2 732.8 411.2 732.8 413.8 730.4 416.1 726.8 415.6 726.8 413.2 725.2 411.9 725.2 408.8 722 408.4 718.3 406.7 714.7 407.1 711.2 406.6 709.2 408.9 708.2 412.2 705.9 414.6 706.8 417.8 705.6 421.5 702.4 424.7 702.4 430.5 698.1 433.5 698.1 436.9"/>
    <polygon class="g"
             points="698.1 436.9 696.2 434.3 696.2 431.4 694 429.2 691.9 430.2 691.4 432.9 685.9 435 683.3 435 682.2 438.1 680.6 440.6 677 440.9 673 436.8 672.6 428.5 673.1 423.5 673.1 418.8 673.7 414.7 673.7 410.6 670.8 409.4 668.7 408.6 668.4 406.7 667.4 404.4 665.5 402.5 665.5 400.3 666.8 399 667.2 395.9 665.4 394.1 663 394.1 660.4 392.8 660.4 390.4 661.4 389.4 660.3 388.2 659.3 384.6 657.3 380.8 654.8 379.1 652 379.9 649.2 380.1 649.2 376.9 651.5 376.3 651.5 374.1 649.1 371.8 648.3 373.6 646.8 375.1 644.9 374.6 642.7 376.8 640.4 377.6 639.1 380.6 639.1 383.7 640.3 387 639.3 389.7 639.3 392.1 642.2 395 644 396.8 643.2 399.2 642 401.2 644.1 403.4 642.1 405.4 640.6 406.5 640.6 410.9 638.8 412 638.2 415 635.3 416.1 636 420.1 634.8 421.4 634.3 425.1 635 428.4 636.7 429.1 639.5 431.9 640.6 430.8 643.3 431.8 643.3 434.7 644.2 437.2 642.3 437 641.1 439.2 640.1 441.1 640.7 442.7 643.3 442.7 644.6 445.4 645.5 447.8 644 449.3 642.4 451.8 642.4 454 641.6 455.9 639.1 455.9 637.1 453.8 634.3 453.8 633.2 451.9 630.6 450.7 630 449 627.8 448.5 624.9 450.3 624.2 453.6 625.7 457 623.4 460.3 619.8 464 617.4 467.5 616.5 471.1 615.2 474.2 617.5 476.5 615.3 478.1 612 475.9 610.4 472.1 607.7 469.4 605.1 470.7 604 474.3 599.8 475.8 596.5 475.2 593 476.1 592.9 481.1 590.9 483 590.9 487.7 593.3 490 594.9 493.8 594.9 496 592.3 497.3 591.1 500.4 588.7 500.4 588 503.5 586.9 506.2 588.7 508.8 588.8 511.5 587.5 512.4 587.5 516.3 588.1 518.5 587 520.6 587.4 523.3 582.5 523.5 582.5 525.6 580.5 525.2 579.7 527.3 582.8 529.3 587.6 534.1 589.8 535.4 592.8 535.4 595.3 537.3 599.1 537.8 602.2 540.8 604.3 541.8 607.9 541.8 609.4 540.3 612.6 543.4 619.6 536.3 622.3 538.1 621.4 540 624.6 541.5 626.4 543.3 630.6 544.5 632.4 546.4 634.6 547.5 636.9 549.9 642.3 548.8 646.8 553 649.4 553 649.4 555.4 651.3 558.4 656.1 558.4 656.9 561.4 660.7 559.3 663.4 559.3 663.4 554.4 667.3 550.5 671.8 545.1 674.1 539.4 680 533.5 686.7 525.4 687.7 513.5 690.1 505.6 686.4 504.5 682.9 488.1 684.2 485.8 685.9 484 683.1 482 680.3 481.1 679.3 476.6 684.6 472.8 687.2 472.8 687.2 469.4 689.7 468.3 693.3 469.5 697.1 468.1 697.1 464.9 699.7 463 701.1 464.5 705.3 464.5 707.8 462.8 709.4 464.3 714.6 465.4 716.7 463.3 718.9 464.5 722.2 461.2 724.8 461.2 724.8 454.6 727.8 453.1 729.7 449.3 732.8 450 734.3 451.5 730.7 454.9 733.7 455.1 736.2 453.8 739.9 454.8 741.4 451.9 744.1 450.3 744.7 447 743.5 445.8 743.5 443.8 740.8 444.9 736 440.1 737.3 436.6 735.8 435.1 737.1 432.3 735.9 431.1 738.7 428.2 741.4 428.4 743 430 745.1 430 747.1 428.4 747.7 426.6 742.9 421.9 742.9 421.9 741.6 418.1 739.5 417.9 739.5 415.5 737.3 413.1 735.4 411.2 732.8 411.2 732.8 413.8 730.4 416.1 726.8 415.6 726.8 413.2 725.2 411.9 725.2 408.8 722 408.4 718.3 406.7 714.7 407.1 711.2 406.6 709.2 408.9 708.2 412.2 705.9 414.6 706.8 417.8 705.6 421.5 702.4 424.7 702.4 430.5 698.1 433.5 698.1 436.9"/>
    <polygon class="f"
             points="354.1 444.2 354.1 441.4 353.4 439.1 354.4 435.9 356.7 437.8 360.2 437.8 362.8 437 362.8 434.8 364.1 433.5 368.7 434.8 370.6 432.9 375.6 432.9 377 431.5 379.7 430.5 382.4 429.5 383.7 428.2 383.6 425.5 385.4 425.5 387.7 427.4 389.7 428.4 391.9 430.6 394.4 430.6 397.7 431.5 400.3 434.1 402.2 437.5 404.4 441.1 404.4 444.1 407.8 444.6 407.8 447.5 409.5 449.2 412.3 450.1 413.9 451.8 416.9 451.8 419.1 453.6 421.8 453.6 420.3 455.8 417.6 458.5 414.3 460 410.3 460 407.8 459.3 404.9 457.8 403.2 459.4 400.4 459.4 398.3 458 396.4 457.1 393.6 456.3 391.3 455.5 391.3 453.5 392.9 451.9 390.3 449.3 387.8 451 386.3 453.5 384.3 455.5 384.1 458.1 385.2 461.5 382.6 462.8 382.6 464.6 384.8 465.8 386.4 467.3 387.2 469.3 389.7 470.6 389.7 472.9 388.5 474.1 385.3 474.6 383.5 476.5 381.1 478.8 381.1 481.8 380.4 483.5 378.7 485.3 377.3 485.5 377.3 487.8 375.6 489.5 374.7 491.4 374.7 493.4 371.7 493.4 371.7 493.4 370.2 490.4 366 490.4 362.7 488.4 359 488.1 358.5 483.1 351.9 479 352.5 475.9 350.2 475.5 349.2 473.4 346.3 473.4 344.4 471.5 341.8 471 341.8 467.2 339.7 466.6 336.9 462.5 338.8 459 340.9 457.4 340 454.4 341.4 453.1 340.7 449.4 343.6 446.6 346 447.2 348.1 445.2 350.3 446.1 354.1 444.2"/>
    <polygon class="f"
             points="281.9 438.6 283.2 437.3 283.2 434.4 284.3 432.1 285.3 433.1 288.6 433.1 291.3 431.8 292.1 428.6 293.8 425.8 296.1 425.8 298.1 428.8 299.3 427.5 301.1 425.7 299.8 424.4 299.7 422.8 302.7 420.8 305.6 421.4 307.6 419.7 309.7 417.6 307.9 415.8 307.9 414.6 309.6 412.9 310.7 409.1 308.6 405.8 308.6 401.5 311.3 399.1 314.2 399.1 316.4 396.9 318.9 393.1 322.3 390.1 324.2 385.5 324.2 382.1 327.6 380.4 327.6 377.8 328.4 375.4 330 373.8 332.3 375.3 332.3 377.4 333.7 378.7 335.1 379.8 337.4 382 341.3 385.9 343.8 390.5 345.8 392.5 345.8 397 344 399.2 344.9 404.4 343.9 408.6 346 410.7 346 414.1 344.1 416 344.8 419.8 347.6 421.3 349.5 423.7 349.7 426.4 351.6 426.4 353.5 428.3 352.5 430.2 352.5 434.1 354.4 435.9 353.4 439.1 354.1 441.4 354.1 444.2 350.3 446.1 348.1 445.2 346 447.2 343.6 446.6 340.7 449.4 341.4 453.1 340 454.4 340.9 457.4 338.8 459 337.5 457.3 337.5 457.3 333.9 457.3 329.9 460.3 327.7 456.4 325.9 457.1 323.4 456 321.2 456 318.6 454.8 314.3 457.8 312.6 456 310.8 454.2 308.4 452.9 306.2 454.9 304 452.7 301.8 452.4 301.2 451.2 298.2 450.1 297.2 448.5 294.5 446.6 292.2 447.5 290.1 449.6 288.1 446.8 285.7 446.8 281.8 444 279.7 441 281.9 438.6"/>
    <path class="f"
          d="M368.6,330.5l-.3,5.5.7,4.5-1.3,4.1-3.1,3.1,1.6,1.6,2.8,2.8,3.3,3.3,4.5-1,3.5,1.5,3.5-1.5,3.8,2,3.8,3.3-2.9,2.9,2.5,2.8,4.5.8,2.3-2.3,2.5,2.5,1.8-1.8h4.5l4,4,.9,4.5V376l3.8,3.8-.8,3.3,1.2,3.3,5.8-.7h2.8l2.5,4h2.8l3.3,3.5,2.8-.7,4.1,1.1,2.7,2.7,1.6-1.6,4.5,1.8-1.2,3.2,3.5,1.8,2.7,2.7h12l1.3-2.3,3-1.7,3.5-2.3,1.4,3.5,3.4,4.4,1.6-1.6,4.8,1.5,2.5,4.2,2.5-.8h2.3l3.5,4.3v5.1l4.2,2.8,4.7,2.1-2.5,4.1-6,2.6-3.8,3.8-6.2-4.5-6.6,2.8-1.2,4.1-4.4-2.3-3.2.8-3.8-3.8-4.2,1.6-5.3-.6-1.4-2.2H450l-4-1.7-5.3.8-2,3.9-2,4.8.3,5.2-5.5,1.5-4.5,3.3-.5,3.5-4.7,2.8h-2.7L417,452h-3l-1.6-1.6-2.8-.9-1.7-1.7v-2.9l-3.4-.5v-3l-2.2-3.6-1.9-3.4-2.6-2.6-3.2-.9h-2.5l-2.2-2.2-4.2-2.9h-1.9l.2,2.7-1.3,1.3-5.4,1.9-1.4,1.4h-5L369,435l-4.6-1.2-1.2,1.3v2.3l-2.6.8h-3.8l-2.3-1.8-1.9-1.9v-4.1l1-1.9-1.9-1.9h-1.9v-2.7l-1.9-2.4-2.8-1.5-.7-3.8,2-2s.5-2.8,0-3.3l-2.2-2.2.9-3.4-.7-5.9,1.7-2.2c.6-.6,0-4.5,0-4.5l-2-2-2.4-4.5-3.9-3.9-2.2-2.2-2.8-2.4v-2.3l-2.3-1.5.6-2.9,4.1-4.1v-2.2l1.4-2.6-.6-2.9,2.3-4.2,3.4-2.1.4-3,4-2.5-.6-3.6,1.5-2.9,3.4-3.4,2.6-2.6,2.1.8v2.6l2.9-.4,3.1-3.1,3.1-1.6,1.8-2,3.2-.5Z"
          transform="translate(-0.1 -0.1)"/>
    <polygon class="h"
             points="750 125.4 748.6 129.2 748.6 131.3 747 132.9 744.5 134 741.8 135.1 739.1 135.1 737 137.1 733.8 136 732.1 133.6 731.4 132.5 731.4 132.5 731.1 131.3 733.3 132.3 734.5 131.2 736 129.6 738.4 127.3 739.8 129 740.6 129 742.5 127.1 744.2 125.1 747.5 123.6 750 125.4"/>
    <polygon class="h"
             points="719.8 158.1 722.6 153.1 725.2 150.4 726.4 151.5 728.8 149.1 729.5 146.9 726.8 146 725 147.8 722.7 146.1 720 144.4 717.3 142.5 718.2 140.5 719.6 139.1 720.8 142.9 722.5 144.7 725.5 145.2 727.3 144.4 728.8 144.4 730.3 142.9 729.5 139.8 727.1 139.8 727.7 137 727.7 135.1 725.8 135.7 725.8 135.7 720.9 135.7 719.3 137.3 716.8 139 715 137.2 710.6 138.5 710.9 141.3 712.1 142.4 713.7 144.1 714.9 145.2 713.2 146.6 710.9 144.6 709.7 145.8 708.1 144.1 704.3 144.9 702.6 144 701.9 146 703.1 147.2 700.8 148.4 700.8 151.2 702.6 153.1 702.2 155.2 703.8 155.2 705.9 157.3 705.3 159.7 708.1 161.1 711.7 161.2 713.2 162.7 715.9 162.7 719.1 161.8 719.1 159.4 717.1 157.6 718.2 156.5 719.8 158.1"/>
    <polygon class="h"
             points="727 163.5 728 166.5 729.8 168.3 731.2 165.5 731.2 163.2 730.1 162.1 728.3 162.3 728.3 162.3 727 163.5"/>
    <polygon class="h"
             points="735.4 170.8 734.4 173.2 735.3 174.1 736.6 171.2 740.1 170.5 743.2 169.2 747.2 166.8 745.1 162.9 742.2 162.9 738.2 161.5 736.3 163.3 734.5 165 734.5 165 732.8 166.7 733.8 169.1 735.4 170.8"/>
    <polygon class="h"
             points="699.1 157.1 696.7 157 698.3 158.6 699.3 162.1 701.3 162.1 701.3 160.2 700.5 158.5 700.5 158.5 699.1 157.1"/>
    <polygon class="h"
             points="624.4 222 625.2 223.8 627.1 222.9 629.4 220.7 629.4 217 626.5 217 624.9 217.3 624.9 217.3 622.1 220.1 622.1 222 624.4 222"/>
    <polygon class="h" points="724.7 112.5 723.5 110.9 723.5 110.9 722.6 112.5 723.6 113.5 724.7 112.5"/>
    <polygon class="h" points="715.9 178.3 715 177 715 177 712.1 176.4 711.2 177.1 712.9 177.9 715 179.5 715.9 178.3"/>
    <path class="h"
          d="M849,128.2l-3.2,3.2v2.3l1.6,1.6h-3.2l-3,2.4-4.2,1.8-4.7-4.7-2.2-2.2-4.6.3-5.5.8-3.2,3.8-3.5,3.5-4.2,6.2V152l-3.3,4.2-3.2,3.2-3.5.2-3.2-1.7-4.5,2.5s1,4.3.5,3.8l-3.2-3.3-2.3,2.7h-3.6s-2.2-.7-1.2-1.8a33.5,33.5,0,0,0,2.5-3l-3-2.2-5,2.2-3.5,1.7-1.5,4.2-.7,2.3,1,5.3v3.1l-2.8,2.7.8-6.5-3.2-1-2.5,2.5-2.8,1.3,1.2-4.5s3.2-1.2,3.2-2.2a2.6,2.6,0,0,0-.7-1.7l-4.8,2.2-6.2,2.3-1.3,3.8-4.7,2.3h-3.2l-2.2,2.2,3.5,2.2.5,2.3-3.7,3.3v3.5l2,1.3,1.7-4.3,1.2,1v3.7l2.8,1.5,2.5,2.5,1.2.7-2.5,2.5-3.2-.2-1.8,2-1.4,1.4,3.9,1.8v2.5l-3.7-1-3.2.2-4.3,1-2.3,4.3.8,4.3H732l-3.7,1L726,214l-4.2-.5v3l2.2,2.2V221l1,2.5,1.7,5.5-.3,3.2-3.8-2-1.5,1.5-3.5-.7-2.5-1.7-3.2-3.2h-3.4v-2.7s-1.5-2.3-1.5-1.5-1.8,1.7-1.8,1.7l-2.4-2.2,1.3-1.3,2.2-.7v-3.7l-1.7-1.7-3.2,2v-3.2l-1.9-1.9h-1.9l1.3-4.1-4-1.3-1.2,1.2-3.7-2.8s-.3,1.6-1.6,1.6-1.1,3.1-1.1,3.1l-1.3,1-1.3-1.5-1.3.3-.7,2-2.7-1.8-1.7-1.7-2.1,1.6-2-2-.5,2-.7,3.8,2.5,3.8.5,3.3s.8,3,0,3-4.5.7-4.5.7l-3.5,3-3.5,1.3-2-3.2L662,226l-.2,1.3h-5l-2.7-2.7,1.2-1.2-1.3-1.9-5,1.5-6.3,1.2-4.2,2.2-3.1,3.1-1.6,1.6,2.3,2.2h-2.3l-2-2.8v-3.3l-1.7-1.7-2.1,2.9-.7,2-3.3-1.3-2.8-.7.4,2.9,1.3,1.1-.3,1.6-1.1,1.2.8,1.9,1.5,2.2,1.4,1.4-.6,3.4,1.2,2.5,3.4,1.3v1.5l4.5,3.3,2.1,2.1v4.1l2.4,4.5h2.6l.3,3.4h-1.4l-.7,2.3-3.2,3.2-2.7,1.9v6l-2.5.9-.9,3.3,1.9,1.9v2.8l-1,2.3-3.4-1-2.5.8-3.6,5.1-3.5,1.4v1.4l.9,2.2,1.3,2.9,2.9,2,.3,5.5,2.9,5.3v2.2l.7,4.2.9,6.5-2.5.7-1.7,2.7-1.6,1.6.9,2.8.9-.9,3.1,1.3v2.3l1.1,1.1-1.1,1v2.9l2.9,1.6.9,4.6,3.4,3.4-1.1,3.2-2,3.1.8,2.5V366l-1,1v3.3l1.8.8H635l1.4-1.4H638l1.5,1.8,3-1.1,2.3,1,1.8-1.8,2.4.2v2l2.3,2.3v2.3l-2.2.6v3.2l2.7-.2,2.8-.8,2.5,1.8,2.1,3.7.9,3.6,1.1,1.1-1,1v2.4l2.6,1.2h2.4l1.8,1.8-.4,3.1-1.3,1.3v2.2l1.9,1.9,1,2.3.3,2,2.1.7,2.9,1.2v4.1l-.6,4.2v4.7l-.5,5,.4,8.3,4,4,3.6-.3,1.7-2.5,1-3.1h2.6l5.5-2.1.5-2.7,2.1-.9,2.2,2.2v2.9l1.9,2.6v-3.4l4.4-3v-5.8l3.1-3.1,1.2-3.7-.9-3.2,2.3-2.3,1-3.3,2-2.4,3.5.5,3.5-.4,3.7,1.8,3.2.4v3l1.6,1.4v2.4l3.6.5,2.3-2.3v-2.6h2.7l1.8,1.8,2.2,2.4V418l2.1.2,1.4,3.7,2.2,2.2,2.6,2.6-.6,1.8,1.7,1.7.8,3.8,3.6,1.4,2.6,3.4,2.5.8v2.9l2.7.7,2.9-2.9,3.2-2.7H770l1.5-1.5,1.8,1.8,2.5.5,1.1-1.1h3.3l1.4,1.8h2.1l.6-2.5,4.2.8,1.5-1.5,3-.6,2.8,1.3,3.5,3.5,2.7-1.2,3-.7,1.4-1.9,2.3,1,1.7-1.7h2.4l1.8,1.8,1.7-1.7,4.9-4.9,3.6.6v-2.3l4.5-1.7,3.2.6,3.3-2.1-.2-3.4,5.4-3.2,5.1-4.2-1.9-4.4v-3.3l-2.2-2.2,1.9-1.9.6-4.3-4.6-2h-3.7l-.4-2.2,2.6-.5-1.4-2.7.7-5.1-3.1-.5-3.1-3.2,2.7-.6.3-4-1.2-1.2-.7-2.1,1-2.6-2.1-2.1,1.8-2.4-1.5-1.5v-3.6l3.4-1.8,2.3-1.2,2.7.3,2.2-2.2,3-1.2.4-2.9-1.9-1.9L845,349l3.9-.7,5.1-5.1-.2-5.7,3.6-1.2v-1.9l-3.6-3.6-.8-2.5-4-4-2.6-.6-.5-3.2.6-3.9-2-2,3.1-4v-3.5l.2-4.4-1.6-1.6-.8-3.1-1.5-1.5v-3.9l2.9-.6,2.5.6,3.2,1.8,3.2-1.7,2.6-.8,2.6-2.6,1.9-3.3h2.5l1.5-.9,1.1,1.1,1.4-.5v-2.8l-.2-4.6.5-3.1-2.5-2.5-.6-2-2.2-2.2-3.9-2-1-2.4-2.7-3.6v-2l-1.4-.6.6-3.3,1.1-1.1-1.9-1.9.5-2.9,4.4-1.8v-1.6h3.3l-.3-3.7-2.5-.7-1.7-2.2,2.1-2H863v-2.6l2.1-1.5v-1.9l2.6-.6,1.6,1.9,2.2-.3,1.1-2.4-.7-2.1,2.3-3.6.7-2.4,2.3-.4v-2.1l-1.1-3-2.7-1.6-2.6-2.6v-3l-.2-3.3-2.5-1.2-1.8-2.4v-2.8l2-.4-.9-2.7-2.8-.8.5-2.5,2.9-1.1v-2.9l1.4-1.4h3.2l.3-3.4h3.9l1.7-1.7-1-3.4,1.5-2.8-2-3.2h-1.9l-1.8-3.5-2-2h-2.7l-3.4,1.1-3.1-1.4-3.3-.5v-3.9l-2.6-1.5-1.4-3.4,2-3.1v-3.4l2.3-1.6V146l1.6-4,3.4-2.6-2.6-4.4-3-1.1-.8-2.1-3.3-.4-4-1.4-1.3-1.9Z"
          transform="translate(-0.1 -0.1)"/>
    <polygon class="g" points="593.1 179.5 592.5 180.4 593.9 181.3 594.5 180.3 593.1 179.5"/>
    <polygon class="g"
             points="585.1 167 587.2 168 588.7 169.1 590.4 168.6 589.9 166.7 588.3 167.1 586.6 166.1 586.6 166.1 585.1 167"/>
    <polygon class="g"
             points="572.8 155.8 571.8 158.7 571.8 158.7 571.8 156.5 571.9 152.8 570.9 150.6 569.4 150.8 567.2 153.4 567.4 155.6 566.5 157.1 567.1 161.2 565.3 163 565.4 167.1 564.5 170.6 563.8 174.1 565.1 174.8 568 172.6 569.7 171.5 573.4 169.5 576.5 169.2 580.2 166.4 582.1 162.9 580.8 159.9 579.5 157.6 577.7 158.4 575.9 155.2 574.5 153.8 572.8 155.8"/>
    <path class="g"
          d="M558.3,142.6l-1.4,1.7-1.2,2.3-1.1-.5.8-2.9v-3l-3.3,1.1-2.4.6-2.7.9-1.1,2.3-.6,2-1.4,1.7.5,2-2.6,2,1.2,1.1,1.8-.6,1.5,2.1.2,2,1.4,1.7,3.5.3.5,2,2.4-1.5,1.2,2,3.3,1.2,3.2-1.5,1.5-2.1-1.2-2.4-2-2.7,1.5-1.1.6-2.6-.8-2.9.3-2.9-3.6-2Z"
          transform="translate(-0.1 -0.1)"/>
    <polygon class="g" points="553.9 190.6 552 191 553.8 192.4 555.6 190.6 555.4 188.8 555.4 188.8 553.9 190.6"/>
    <polygon class="g" points="530.2 188.2 529.4 189.4 530.5 190.3 531.8 188.3 530.2 188.2"/>
    <path class="g" d="M514.7,229.7l-1.8.9a13.5,13.5,0,0,0,.8,2c0-.3,1.4-.6,1.4-.6l-.3-2.3Z"
          transform="translate(-0.1 -0.1)"/>
    <polygon class="g" points="501.6 216 499.9 217.3 500.8 219.2 502.3 218.9 501.6 216"/>
    <polygon class="g"
             points="504.8 236.6 503.3 236.2 501 235.8 501 235.8 500.7 237.5 503.3 237.5 504.6 238.8 504.8 236.6"/>
    <polygon class="g" points="491.3 147 492.4 147.6 494 148.8 494.5 147.3 492.2 146.1 492.2 146.1 491.3 147"/>
    <polygon class="g"
             points="481.9 252.9 482.5 254.7 483.6 256.1 485.1 254.4 485.7 252.4 484.3 251.1 483 251.5 483 251.5 481.9 252.9"/>
    <polygon class="g"
             points="505.8 128.3 506.8 127.3 504.9 126.5 504.9 126.5 503.7 126.8 502.9 127.6 504.1 128.8 505.8 128.3"/>
    <polygon class="g"
             points="536.2 125.1 536.2 123.9 533.6 124 533.6 124 532.4 125.1 533.3 126 534.2 127 536.2 125.1"/>
    <polygon class="g"
             points="539.6 128.1 539.6 131.3 540.9 132.6 539.1 134.5 537.9 136.8 539.6 139 540.2 141.3 543.1 143.8 545.7 141.3 547.4 141.3 550.1 139.8 553.2 138.8 552.3 135.8 552.3 132 554.2 130.4 552.6 128.8 549.4 125.6 548.3 123.1 545.6 122.4 545.6 122.4 545.2 124.9 542.9 125.9 539.6 128.1"/>
    <polygon class="g"
             points="540.3 149.3 542 147.6 542.9 145.1 541.3 143.9 538.2 143.1 538.2 143.1 536.1 142.9 536.4 145.6 536.4 147.4 539.2 148.1 540.3 149.3"/>
    <polygon class="g" points="504.8 207.1 504 208 505.1 208.9 506.8 208.4 504.8 207.1"/>
    <path class="g"
          d="M617.6,298.8l.9,2.2,1.3,2.9,2.9,2,.3,5.5,2.9,5.3v2.2l.7,4.2.9,6.5-2.5.7-1.7,2.7-1.6,1.6.9,2.8.9-.9,3.1,1.3v2.6l1.1,1.1-1.1,1v2.9l2.9,1.6.9,4.6,3.4,3.4-1.1,3.2-2,3.1.8,2.5V366l-1,1v3.3l1.8.8H635l1.4-1.4H638l1.5,1.8,3-1.1,2.3,1,1.8-1.8,2.4.2v2l-.9,1.9-1.4,1.4-2-.5-2.2,2.2-2.2.8-1.3,3v3.1l1.2,3.3-1,2.8v2.4l2.9,2.9,1.8,1.8-.8,2.4-1.2,2,2.1,2.1-2,2-1.5,1.1v4.4l-1.7,1.1-.7,3-2.9,1.2.8,4-1.2,1.3-.5,3.7.8,3.3,1.7.8,2.8,2.8,1.1-1.1,2.7,1v2.9l.9,2.5-1.8-.2-1.2,2.3-1,1.9.6,1.6h2.7l1.3,2.7.9,2.4-1.5,1.5-1.6,2.5v2.2l-.8,1.9h-2.5l-2-2h-2.8l-1.1-1.9-2.6-1.2-.6-1.7-2.2-.5-2.9,1.8-.7,3.3,1.5,3.4-2.3,3.3-3.6,3.6-2.5,3.5-.9,3.6-1.3,3.1,2.3,2.3-2.3,1.6-3.2-2.2-1.6-3.8-2.7-2.7-2.6,1.3-1.1,3.6-4.2,1.5-3.3-.6-3.5.9v5l-2,2v4.7l2.3,2.3,1.6,3.8v2.2l-2.6,1.3-1.2,3h-2.5l-.7,3.1-1.1,2.7,1.8,2.7v2.7l-1.3.9v3.6l.7,2.2-1.1,2.1.4,2.7-4.8.3v2.1l-2.1-.4-.8,2.1,3.1,2,4.7,4.7,2.2,1.3-.9,2.1-1.8-.7-1.3,1.5-3.7-.2-3.2,3.2-4.4-.7-1.6,1.6-1,6-3.9,1v2.8l-2.5,2.5v4.3l-3.5,1-4.9,4.3-3.5,1.5H551l-3.4-1.7h-3.7l-3.9-1.4-2.9-2.9,1.2-1.7,1.5-3.7,3-1.3,2.7-2.7-.4-3.4,2.7-2.7,1-3.4-1-2.7v-3.2l-3.5-3.5-1.1-4-3.4-3.4,1.1-4.5-1-2-3.2,1.1-4.9-.5-1.5,1.5-3.3-.7-3.2-3.4-1.9-3.2,3-3,2-.8-.2-4.8-1.8-3.4-2.3-.8-1.3-1.2-.5-2.7.8-3.5v-5l2.2-3.8,3.7-1.8-.5-3.8-4.5-1.5h-2.8l-.8-2.7-2.5-4,1.6-4.2,5.4-5.7-1.7-1.7-4.8.3-1-3.8-3.2-3.2-2-3-4-1h-5.3l-4.5,1.2-3.7-1.2-1-3.3,3-3-3.2-6.8,3.8-3.8,6-2.6,2.5-4.1-4.7-2.1-4.2-2.8v-5.3l3.9-3.9,1.4-1.4.3-3.7,2.4-2.4v-4.2l-2.5-3.5,1.7-3.2L505,388l2.3-2.2-1.2-2.7.7-3.5-.7-4-1.9,1.9-1.9-1.9-3.8-.8-.8-3.5,1.7-1.7-.3-3.8-1.5-3-2-2h-2l-1.8-3.3,1.5-1.2v-3l-1.2-2v-1.7l2.3-2.1-1.4-2.9-3.7-2.2v-2.3l-1.5-1.5,1.4-2.5-.5-3-1.6-1.6v-2.7l2.3.5.6-2,1.8-1.8,1.1-3.2-1.3-2.5h1.3l.9-2.4-1.6-3.8V311l-2.6-.5v-3.2l-2,1.9c-.3.3-1-1-1-1l-2,1.8-1.1-1.1-.4-2.2-3.2-.5-2.1-2.1-.5-1.8-1.5-1.5-.2-3.1,3-2.3,2.5-2.5,1.3-2h3.4v-5.7l.3-4-3.6-2-1.1-2.1-.7.9-1-2.2,2.3-2.3,3.2-.5-.3-1.7,1.6-1.6-.6-2.2-2.3-1.2-2.1-.4-1.4-1.4-.7-1.8h-1.6l-.2-2,3.3.7,2.8-.4,2.3,2.3,4.3,2.3-1.2,3.3,1.1,1.1,2.9,2.9h4.5l.7-2.7-1.8-2.5.2-2.3-3.2-1.2-2.3-3.8-1.3-1.3,1-4,1.5-3.3-1.3-1.3-.8-4.2,3.3-3h7.8l4,1.5v-1h6.4l4.3-1.8h3.2l1.7-1.7-1.7-2.5-2-.7-1.7-1.7,1.9-1.9c1.3-1.2,1.3,1.3,1.3,1.3l2-.5-1.3-1.5.9-2.1-1.4-1.4,1.7-2.3,2.3-1.8-2.3-.2-.2-2.5,4.7.2,1.8-3.8,4.6-1.7,1.8-1.7,6.3-.9,1.6-1.6,4.5-1.3,1-1.2-3-1,1.7-1.7,4.3-1,3.7-.5.8-1.8,3-.5-1.6,3v2.4l2.1-2.1,5.2.2.5-2.7,3.3-.7,3.3.7-1.5-2-2-1.5-1-1.8h3.7l3.8-1.2h1.2l-.3-2.8-1.3-1v-4l.8-2.7,2.5-6.2,3-2.2,2.7-2.8,3.3,2,2.5-.3.8,3.4-2.6,2.6-2.2,2.8,5.3.3,1-1h3.3l2.4,2.4-2.2,2.2s-.2,2.2.8,2.2a15.8,15.8,0,0,1,3.7,1.2l.8-2.8-1.5-1.5,3.7-2h3.3l3.4-2.4,1.9,1.9,2.6-1.2,1.9,1.9,1.7,3.3,2,1.7,1.2-1.3,1.8,1.8,2.3,2.3-.3,3.5-3.3-.7,1.3,1.3,3.3,1.8,2.1,3.6-1.9,1.9v3.3l-1.7,2.3-1.6,3.3-1.9,1.9-3.3,4v1.1l-1,4.7-2.5,2.5-1,5.2-4,1-1.2,3.8-2.7,2.8-.7,4.3-.8,3,3-1.3-.7-3.3,3-1.8a19.2,19.2,0,0,1,4.2-.8c1.5,0,2-3,2-3l2.8-2.3,2.7-1,1.6-3.1-1.2-1.2-2-.2.2-1.3-.2-2.7,2.5-.2h2l.4,2.9,1.3,1.1-.3,1.6-1.1,1.2.8,1.9,1.5,2.2,1.4,1.4-.6,3.4,1.2,2.5,3.4,1.2v1.5l4.5,3.3,2.1,2.1v4.1l2.4,4.5h2.6l.3,3.4h-1.4l-.7,2.3-3.2,3.2-2.7,1.9v6l-2.5.9-.9,3.3,1.9,1.9v2.8l-1,2.3-3.4-1-2.5.8-3.6,5.1-3.5,1.4v1.4"
          transform="translate(-0.1 -0.1)"/>
    <polygon class="g"
             points="518.7 493.1 515.2 496.6 513.3 494.7 509.7 496.7 506.7 495.4 503.2 495.4 497.5 500.4 491.7 500.4 488.3 502.1 484.1 501.9 479.7 506.5 477.9 504.6 479.5 503.1 478.2 501.8 478.2 498.6 477.6 494.4 475.4 493.4 473.1 495.8 469.1 496.8 465.7 496.8 462.8 492.8 455.6 492.8 452.2 488.2 450 486 447.2 483.1 442.7 481.3 438.9 479.3 434.4 478.6 430.3 478.6 428.3 476.6 424.7 475.8 423.7 472.9 421.8 469.1 422.4 465 420.4 463 420.4 459.6 422.3 455.3 421.8 453.6 426.5 450.9 427 447.4 431.6 444.1 437.1 442.6 436.8 437.3 440.7 428.6 446 427.8 450 429.5 455.8 429.5 457.2 431.7 462.6 432.3 466.7 430.7 470.6 434.6 473.7 433.7 478.2 436 479.4 431.9 486 429.1 492.1 433.6 492.1 433.6 494 437.6 495.3 440.4 492.3 443.4 493.3 446.7 497 447.9 501.5 446.7 506.8 446.7 510.8 447.7 512.8 450.7 516 453.9 517 457.7 521.8 457.4 523.5 459.1 520.7 462.2 518.1 464.8 516.5 469.1 519 473.1 519.8 475.7 522.7 475.7 527.2 477.2 527.7 481.1 524 482.9 521.8 486.7 521.8 491.7 518.7 493.1"/>
    <polygon class="g"
             points="506.4 549 507.4 551.8 510.7 554.6 513.9 554.6 516.8 556.1 518.4 556.1 518.6 559.1 520.8 559.1 520.8 556.4 523.2 554.1 526.1 551.2 524.6 549.7 523.5 547.6 523.8 545.7 525.1 544.5 523.5 542.4 521.8 540.7 524.8 536.2 524.8 532.7 524.8 531.4 525.9 530.3 525.9 528.2 523 527.7 521.1 529.7 518.8 527.3 521.8 526.5 521.8 523.4 522.5 520.7 520.8 517.4 519.7 514.1 522.2 511.9 525.2 508.9 527.2 508.1 527.2 503.7 525.2 499.9 522.8 499.1 521.5 497.9 521.5 497.9 521 495.2 521.8 491.7 518.7 493.1 515.2 496.6 513.3 494.7 509.7 496.7 506.7 495.4 503.2 495.4 497.5 500.4 491.7 500.4 488.3 502.1 488.8 507.6 489.9 510 490.8 515 490.2 522.1 492.3 525.3 494.3 529.1 497.3 529.1 499.4 533.3 501.3 535.1 501.9 538.3 504.6 539.9 507.1 539.9 507.2 542.1 504.7 543.3 506.1 545.8 506.4 549"/>
    <polygon class="g"
             points="522.7 568.6 520.9 568.6 519.3 572 516.6 572 513.2 568.5 514.8 566.9 514.1 563.6 518.6 559.1 520.8 559.1 520.8 556.4 526.1 551.2 524.6 549.7 523.5 547.6 523.8 545.7 525.1 544.5 523.5 542.4 521.8 540.7 524.6 536.6 524.8 531.4 525.9 530.3 525.9 528.2 523 527.7 521.1 529.7 518.8 527.3 521.8 526.1 521.8 523.4 522.5 520.7 520.8 517.4 519.7 514.1 522.2 511.9 522.2 511.9 524 515.1 527.2 518.5 530.5 519.2 532 517.7 536.9 518.2 540 517.1 541.1 519.1 539.9 523.6 543.3 527 544.4 530.9 547.9 534.4 547.9 537.6 548.9 540.3 547.9 543.8 545.1 546.5 545.5 549.9 542.8 552.6 539.8 554 538.3 557.7 537.1 559.4 533.5 561.3 533.5 565 530.3 568.1 524.2 567.1 522.7 568.6"/>
    <polygon class="d"
             points="51.6 500.7 52.8 499.7 54.6 497.8 56.4 495.3 57.9 493.8 59.4 493.1 60.1 495.3 61 493.5 61 489.8 61 487.5 59.9 486.7 58.9 485.7 57.4 484.9 56.9 483.1 54.7 482.4 53.9 482.8 51.8 482.2 51.8 482.2 50.8 480.6 48.9 478.7 47.9 479.1 47.9 480.8 48.7 482.3 52.2 485.9 53.9 485.9 54.4 485.3 56.2 486.4 57.2 488.7 56.1 489.8 54.3 489.6 53.3 491.6 51.7 491.6 51.7 494.3 52.4 496 51.9 497.3 48.3 497.3 47 496.7 45.6 498.1 48.1 501.3 49.1 503 49.8 502.3 51.6 502 51.6 500.7"/>
    <polygon class="a"
             points="146.8 257.6 144.7 255.1 144.7 255.1 159.9 255.1 159.9 260 161.7 266.2 168 284.4 172 286.2 174.3 290.6 176.2 297.6 173.8 302.6 171.6 305.4 169.4 305.6 168.4 307.5 165.3 307 163.5 308.8 162.2 303.8 160.8 302.5 158.9 301.8 159.9 299.7 159.9 297.7 157.8 296.8 157.6 294.8 155.2 294.6 153.8 296.1 151.9 293.8 152.5 289.5 151 289.1 149.3 287.4 147.7 288.8 146 289.2 143.4 288.1 140.8 287.9 136.9 287.9 135.8 285.6 134.3 286.2 133.1 287.4 130.9 287.2 130.3 284 131.2 281 130.1 278.6 129.9 276.1 127.8 274 128.8 271.7 126.8 269.4 130.2 267.4 134.7 268.4 135.3 265.9 136.8 264.4 139.7 265.7 142 268.2 145.7 269.4 147 272.4 146.4 273 146.4 273.9 145.7 276.9 146.8 276.6 148.3 277.7 149 277.2 149.7 277.2 151.2 276.6 151.2 275.2 151.9 274.3 151.9 273.1 151.5 272.5 150.3 273.7 150 268.9 147 266.2 147 260.6 149.7 259.9 150.5 259.1 146.8 257.6"/>
    <polygon class="a"
             points="209.5 279.4 209.9 275.2 210.8 273.4 212.8 272.3 213.8 270 213.7 267.4 214.7 266.2 215.9 267.9 216.7 267.1 218.4 268.3 220.6 265.3 223 261.1 220.5 253.2 223.6 250.1 224.8 244.2 228.1 241 232.2 239.7 234.5 234.6 235.2 230.9 232.8 228.5 234.6 226.6 234.5 222.4 232.4 222.6 230.7 221.5 227.9 222.2 226.1 220.4 227 217.9 227.3 214.9 219.3 207.7 213.2 219.2 210.3 217.9 204.5 222.6 201.8 222.7 201.8 228.4 198.8 229.6 198.8 233.9 194.8 237.1 190.2 237.1 189 248.1 189 252.4 182 254.9 159.9 255.1 159.9 255.1 159.9 260 161.7 266.2 168 284.4 172 286.2 174.3 290.6 176.2 297.6 179.9 295.5 182.4 291.9 184.3 292.9 187.3 291.2 190.1 290.3 192.8 290.8 195.3 291.9 198 291.3 200.2 292.6 200.3 294.1 202.7 296.7 203.9 295.3 205.1 295 208.4 291.7 209 289.1 208.7 286.8 211.4 286 212.7 282.6 209.5 279.4"/>
    <path class="d"
          d="M17.3,432.2l-.9-.8-1.1-.9-.8-.6-.8-.5H10.5l-1.8.2-1.5-.9-1.5-.5-.9-.5-1.3,1.2.2,1.7,1.3.7,1.5.5.9,2.4.2,1.9-.5,1.5.2,2.1-.6,1.9-2.2.8-1.1,1.2-1.6.2-1.2,2,.7,2.4.6,1.8,2.4,1.6,2.6-.3,1.5-.8,2.4-1.1,1.7.5,2.2,1.4.6,1.2.6.8,1.1,1,2.6.9h5.6l1.2,2.5.7,1.8,3.5,2.3,3.4.6,1.2-2,2.8.4-2.7-2.7L35,457l-.5-.8-.5-.6-3-.5-3.3-1.8-2.4-3.7,1.5-2.2.7-3.2-.4-2.9-.4-.4-.9-.7-.2-.5.7-3.2-1.7-1.7v-2.6l-1.9-.3-.3,1.3H20.6l-2.1.3Z"
          transform="translate(-0.1 -0.1)"/>
    <path class="d"
          d="M.6,445.8l.6,2.2.6,1.5,3.9-2.1-.5-1v-.8l.5-.5,1.3.5.7-.9-.8-1,.3-.7H8l.2-1.1-1.6-.5-1.7.8-1.2,1.2-1.6.2Z"
          transform="translate(-0.1 -0.1)"/>
    <path class="a"
          d="M147,272.3l1.4,3.6,2-2-.3-4.8-1.7-1.6,1.4-.5,1.8.6.7,3.8.4,4.3-.7,1.5-1.4.7-.9,1.3-1.3.8-1.7-.5-1.2-1v-1.4l.8-2.9V273Z"
          transform="translate(-0.1 -0.1)"/>









</svg>